<svg xmlns="http://www.w3.org/2000/svg" viewBox="0 0 435 489.628"><defs><style>.cls-1{fill:url(#linear-gradient)}</style><linearGradient id="linear-gradient" x1="1.174" y1=".253" x2="-.159" y2=".425" gradientUnits="objectBoundingBox"><stop offset="0" stop-color="#010124"/><stop offset="1" stop-color="#264da6"/></linearGradient></defs><g id="item-ьь" transform="translate(-38.6 -11.022)"><path id="Path_63" data-name="Path 63" class="cls-1" d="M473.6 256.6A217.288 217.288 0 0 0 310.3 46a17.184 17.184 0 0 0-8.5 33.3 183.1 183.1 0 0 1 27.8 345l15.9-37a17.2 17.2 0 1 0-31.6-13.6l-31 72.2a17.294 17.294 0 0 0 9 22.6l72.2 31a17.948 17.948 0 0 0 22.6-9 17.294 17.294 0 0 0-9-22.6l-31.4-13.5a217 217 0 0 0 127.3-197.8z"/><path id="Path_64" data-name="Path 64" class="cls-1" d="M210.4 433.9a183.1 183.1 0 0 1-30.5-343.8L165 124.7c-3.7 8.7.1 19.2 9 22.6 10.4 3.9 19.2-.8 22.6-9l31-72.3c3-7 2.9-17.5-9-22.6l-72.2-31A17.2 17.2 0 1 0 132.8 44l33.6 14.4a217.514 217.514 0 0 0 35.5 408.8c11.6 3 18.9-4.6 20.9-12.4a17.24 17.24 0 0 0-12.4-20.9z"/><path id="Path_65" data-name="Path 65" class="cls-1" d="M296.6 321.4c8.8-9.2 13.2-20.8 13.2-34.6a47.754 47.754 0 0 0-3.2-17.5 41.077 41.077 0 0 0-9-14 50.809 50.809 0 0 0-15.2-10c-3.3-1.4-9.9-3.4-20-5.9V182a27.282 27.282 0 0 1 15.4 8.3c3.7 4.2 6.2 10.2 7.4 18l20.6-3.1c-1.8-12.6-7-22.6-15.7-29.8q-10.2-8.55-27.6-10.2v-9.5h-11.8v9.5c-13.2 1.3-23.2 5-29.9 10.9-10.1 8.8-15.1 20.3-15.1 34.5a43.2 43.2 0 0 0 5.2 21.4 35.894 35.894 0 0 0 14.7 14.7 82.448 82.448 0 0 0 25.2 9.5v63.5c-7.8-.8-14.6-4.8-20.2-11.9-3.9-5-6.7-12.9-8.2-23.6l-20.1 3.8c.7 10.3 3.4 19.1 7.9 26.3s9.9 12.4 16.2 15.6c6.2 3.2 14.4 5.4 24.3 6.7v19.9h11.8v-20.2c14-.7 25.4-5.7 34.1-14.9zm-45.8-84.5c-9.1-2.7-15.5-6.4-19.3-11s-5.7-10.3-5.7-17.1a25.618 25.618 0 0 1 6.7-17.8q6.75-7.5 18.3-9.3v55.2zm30.9 72.6a29.764 29.764 0 0 1-19.2 10.1v-60.7c10.7 3.5 17.9 7.4 21.5 11.8s5.4 10.2 5.4 17.5c-.1 8.4-2.6 15.6-7.7 21.3z"/></g></svg>