<svg xmlns="http://www.w3.org/2000/svg" viewBox="0 0 594.699 568.519"><defs><style>.cls-1{fill:url(#linear-gradient)}</style><linearGradient id="linear-gradient" y1=".144" x2="1.516" y2=".108" gradientUnits="objectBoundingBox"><stop offset="0" stop-color="#264da6"/><stop offset="1" stop-color="#010124"/></linearGradient></defs><g id="item-еуі3" transform="translate(0 -.985)"><path id="Path_66" data-name="Path 66" class="cls-1" d="M124.962 65.6c-.04-.518-.053-1.037-.106-1.542-.439-19.668-3.867-35.562-19.336-42.114-16.346-6.924-30.752-7.017-41.317-2.91-.691.279-2.5 2.658-3.189 3.1s-4.412-.8-5.807-.465c-23.19 3.309-30.845 25.157-29.157 42.194 5.542 9.675 7.3 21.874 7.814 34.486 8.638 15.07 23.469 26.645 41.17 26.645 23.642 0 42.367-19.961 48.2-41.689a4.685 4.685 0 0 0 4.253-4.253l.731-8.585a4.723 4.723 0 0 0-3.256-4.867zm-49.968 52.75c-24.4 0-42.646-25.848-42.646-48.985 0-1.09.093-2.153.173-3.216 10.166-3.721 29.7-11.5 31.841-15.588 8.877 9.223 40.24 14.406 54.021 16.147.066.877.146 1.767.146 2.658C118.5 92.023 99.5 118.35 74.994 118.35z" transform="translate(317.375 187.959)"/><path id="Path_67" data-name="Path 67" class="cls-1" d="M9.658 70.269l.731 8.585a4.763 4.763 0 0 0 4.572 4.292c5.7 21.781 24.107 41.835 47.43 41.835 18.3 0 33.556-11.987 42.273-27.443a54.332 54.332 0 0 1 8.824-31.084c-.385-.279-.664-.691-1.13-.851-.04-.518-.053-1.037-.106-1.542-.439-19.668-3.867-35.562-19.336-42.114-16.346-6.922-30.751-7.015-41.316-2.909-.691.279-2.485 2.658-3.189 3.1s-4.412-.8-5.807-.465c-23.19 3.309-30.845 25.17-29.157 42.207-.053.478-.08.957-.12 1.435a4.7 4.7 0 0 0-3.669 4.954zm10.233-4.106c10.166-3.721 29.7-11.5 31.828-15.588C60.6 59.8 91.973 64.979 105.754 66.72c.066.877.146 1.767.146 2.658 0 22.645-19 48.985-43.5 48.985-24.413 0-42.646-25.848-42.646-48.985a31.871 31.871 0 0 1 .137-3.216z" transform="translate(118.464 187.959)"/><path id="Path_68" data-name="Path 68" class="cls-1" d="M22.017 46.314c3.469 13.249 14.658 25.449 28.851 25.449 14.392 0 25.755-12.146 29.33-25.356a2.854 2.854 0 0 0 2.591-2.591l.439-5.223a2.878 2.878 0 0 0-1.967-2.964c-.027-.306-.027-.625-.053-.93-.279-11.96-2.366-21.622-11.774-25.622C59.479 4.864 50.722 4.8 44.29 7.31c-.425.173-1.515 1.621-1.94 1.887s-2.684-.478-3.535-.279c-14.1 2.007-18.751 15.3-17.728 25.675-.04.279-.053.585-.08.877a2.871 2.871 0 0 0-2.219 3.017l.452 5.223a2.869 2.869 0 0 0 2.777 2.604zm3-10.339c6.18-2.259 18.06-6.99 19.363-9.489 5.4 5.608 24.479 8.771 32.865 9.821.04.545.093 1.076.093 1.621C77.34 51.7 65.765 67.71 50.868 67.71c-14.858 0-25.941-15.721-25.941-29.781 0-.665.04-1.303.093-1.954z" transform="translate(230.761 57.013)"/><path id="Path_69" data-name="Path 69" class="cls-1" d="M39.894 12.845C20.306 15.636 13.847 34.1 15.269 48.5c-.04.4-.066.811-.106 1.209a3.958 3.958 0 0 0-3.07 4.186l.625 7.256a3.986 3.986 0 0 0 3.854 3.615C21.4 83.159 36.931 100.1 56.639 100.1c19.974 0 35.775-16.864 40.719-35.2a4.009 4.009 0 0 0 3.6-3.6l.611-7.243a4.018 4.018 0 0 0-2.738-4.12c-.04-.425-.04-.864-.093-1.3-.371-16.615-3.268-30.037-16.331-35.579C68.6 7.211 56.426 7.131 47.509 10.6c-.585.239-2.1 2.246-2.7 2.618s-3.719-.665-4.915-.373zm7.721 24.413c7.5 7.788 33.994 12.173 45.636 13.635.053.744.12 1.488.12 2.246 0 19.123-16.054 41.357-36.745 41.357C36 94.5 20.611 72.661 20.611 53.139c0-.917.066-1.821.133-2.711 8.585-3.137 25.077-9.728 26.871-13.17z" transform="translate(148.403 89.524)"/><path id="Path_70" data-name="Path 70" class="cls-1" d="M28.109 64.742c4.824 18.392 20.359 35.336 40.067 35.336 19.987 0 35.775-16.864 40.719-35.2a3.87 3.87 0 0 0 2.87-2.073l.983-.106a.706.706 0 0 0 .664-.571l.625-7.229a.726.726 0 0 0-.518-.691l-.412-.146a4.013 4.013 0 0 0-2.751-4.12c-.027-.425-.027-.864-.08-1.3-.372-16.612-3.269-30.034-16.333-35.576C80.137 7.213 67.964 7.133 59.047 10.6c-.585.239-2.1 2.246-2.7 2.618s-3.708-.664-4.9-.385C31.857 15.625 25.4 34.084 26.82 48.489c-.04.4-.066.811-.12 1.209a3.948 3.948 0 0 0-3.057 4.186l.625 7.256a3.972 3.972 0 0 0 3.841 3.602zm4.16-14.353c8.585-3.136 25.09-9.715 26.871-13.17 7.482 7.788 33.994 12.173 45.649 13.635.053.744.12 1.488.12 2.246 0 19.123-16.054 41.357-36.745 41.357-20.638 0-36.027-21.834-36.027-41.357.039-.9.079-1.82.132-2.71z" transform="translate(290.357 89.549)"/><path id="Path_71" data-name="Path 71" class="cls-1" d="M29.841 43.343a56.476 56.476 0 0 1-12.053 20.891l45.117.027v-.08l46.074-.027A56.839 56.839 0 0 1 97.192 43.33a7.214 7.214 0 0 1-4.492-6.1l-.625-7.256a7.23 7.23 0 0 1 3.136-6.618 39.5 39.5 0 0 1 .146-7.814 16.618 16.618 0 0 0-9.608-5.263 3.731 3.731 0 0 0-1.954.253L71.916 26.6l-9.023-7.19-.053.04v.04l-.013-.013-9 7.2-11.879-16.065a3.849 3.849 0 0 0-1.94-.239 16.2 16.2 0 0 0-8.771 4.452c.319 2.964.532 5.954.611 8.917a7.283 7.283 0 0 1 2.831 6.392l-.611 7.229a7.233 7.233 0 0 1-4.227 5.98z" transform="translate(218.603 113.739)"/><path id="Path_72" data-name="Path 72" class="cls-1" d="M48.4 21.764A58.527 58.527 0 0 1 31.839 45.1 58.091 58.091 0 0 0 48.4 21.764z" transform="translate(391.281 255.361)"/><path id="Path_73" data-name="Path 73" class="cls-1" d="M27.653 38.2c.253.04.492.093.718.133.093-.106.186-.213.292-.332a8.583 8.583 0 0 1 3-2.525 47.622 47.622 0 0 1 19.937-2.82l-13-17.582a5.337 5.337 0 0 0-2.7-.332C23.719 16.456 16.038 28.271 11.161 42a37.5 37.5 0 0 1 12.253-4.093l1.076-.093a25.775 25.775 0 0 1 3.163.386z" transform="translate(137.162 168.414)"/><path id="Path_74" data-name="Path 74" class="cls-1" d="M16.717 84.83l.9 10.565a5.821 5.821 0 0 0 5.621 5.289c7.017 26.791 29.662 51.5 58.367 51.5 29.117 0 52.134-24.585 59.324-51.31a5.851 5.851 0 0 0 5.263-5.249l.89-10.552a5.773 5.773 0 0 0-4-5.98c-.053-.625-.066-1.276-.146-1.9-.518-24.2-4.731-43.762-23.8-51.829-20.105-8.522-37.836-8.642-50.83-3.592-.851.332-3.057 3.269-3.92 3.814s-5.422-.97-7.15-.558C28.7 29.094 19.282 55.992 21.355 76.963c-.053.585-.106 1.169-.146 1.767a5.776 5.776 0 0 0-4.492 6.1zm12.6-5.063c12.49-4.567 36.544-14.14 39.149-19.177 10.934 11.349 49.543 17.728 66.487 19.855.08 1.09.186 2.179.186 3.269 0 27.881-23.389 60.267-53.53 60.267-30.047 0-52.48-31.815-52.48-60.267-.013-1.329.093-2.631.186-3.947z" transform="translate(205.149 213.797)"/><path id="Path_75" data-name="Path 75" class="cls-1" d="M35.444 37.392l-12.519-9.98-.08.066v.066l-.013-.013-8.027 6.392A75.36 75.36 0 0 1 30.7 38.548C48.561 46.11 51.564 65.1 52.03 82.868a42.32 42.32 0 0 1 27.907-15.654l1.209-.106a23.485 23.485 0 0 1 3.774.465c.239.04.452.08.678.12-3.255-21.065-11.282-50.182-30.977-52.959a5.218 5.218 0 0 0-2.711.346z" transform="translate(181.956 168.315)"/><path id="Path_76" data-name="Path 76" class="cls-1" d="M115.6 14.734a5.166 5.166 0 0 0-2.7.346L96.411 37.406l-12.519-9.98-.08.066v.066l-.013-.013-12.519 9.98L54.775 15.2a5.263 5.263 0 0 0-2.684-.332c-17.555 2.472-25.861 25.9-29.755 45.888A88.135 88.135 0 0 1 51.121 67.8a36.385 36.385 0 0 1 14.392 10.736c-.12-17.808 9.356-37.237 32.12-40.493l1.076-.093a20.323 20.323 0 0 1 3.176.385c.252.04.492.093.718.133.093-.106.2-.213.292-.332a8.358 8.358 0 0 1 3-2.525c9.077-3.535 19.974-3.854 31.416-1.1-4.899-10.342-11.823-18.382-21.711-19.777z" transform="translate(274.495 168.315)"/><path id="Path_77" data-name="Path 77" class="cls-1" d="M109.072 136.858l94.554-.08S200.742 34.2 155.319 27.8a7.534 7.534 0 0 0-3.934.492L127.344 60.8 109.1 46.264l-.106.08v.106l-.027-.027-18.248 14.552-24.04-32.532a7.839 7.839 0 0 0-3.934-.492C17.322 34.33 14.438 136.937 14.438 136.937l94.62.053.013-.133z" transform="translate(177.434 328.564)"/><path id="Path_78" data-name="Path 78" class="cls-1" d="M97.839 112.569l76.839-.053s-2.339-83.364-39.257-88.587a6.238 6.238 0 0 0-3.189.4L112.683 50.76 97.865 38.919l-.093.08v.093l-.013-.027-14.818 11.828-19.535-26.419a6.748 6.748 0 0 0-2.724-.332L60.31 28.5a8.945 8.945 0 0 1-5.861 7.708c-4.678 15.655-15.057 31.071-29.2 41.011-.492 2.432-.9 4.8-1.3 7.11l8.439-11.4.851-.345a11.394 11.394 0 0 1 5.7-.7c18.924 2.671 30.791 20.293 38.313 40.8l20.6.027v-.133z" transform="translate(294.33 281.21)"/><path id="Path_79" data-name="Path 79" class="cls-1" d="M7.807 112.666l76.892.027v-.133h20.824c7.535-20.4 19.389-37.888 38.247-40.519a12.191 12.191 0 0 1 5.621.678l.877.346 8.266 11.176c-.439-2.671-.93-5.4-1.515-8.2a78.911 78.911 0 0 1-27.243-39.895 9.043 9.043 0 0 1-6.273-7.867l-.346-4.093c-.306-.053-.558-.2-.877-.253a6.322 6.322 0 0 0-3.2.385L99.544 50.751 84.726 38.923l-.093.08v.08l-.013-.027L69.8 50.884 50.267 24.451a6.627 6.627 0 0 0-3.2-.385c-36.921 5.209-39.26 88.6-39.26 88.6z" transform="translate(95.943 281.192)"/><path id="Path_80" data-name="Path 80" class="cls-1" d="M497.62 52.787L531.934.985 406.07 16.892l38.8 115.538 30.393-45.875c48.931 46.858 79.55 112.627 79.55 185.573 0 142-115.5 257.482-257.482 257.482S39.868 414.125 39.868 272.141c0-105.332 63.616-195.938 154.383-235.793L164.257 6.367C66.965 55.3 0 156.006 0 272.155 0 436.106 133.4 569.5 297.35 569.5S594.7 436.1 594.7 272.15c0-86.841-37.517-164.943-97.08-219.363z"/></g></svg>