<svg xmlns="http://www.w3.org/2000/svg" viewBox="0 0 608 608"><defs><style>.cls-1{fill:url(#linear-gradient)}</style><linearGradient id="linear-gradient" x1="1" y1=".589" x2="0" y2=".594" gradientUnits="objectBoundingBox"><stop offset="0" stop-color="#010124"/><stop offset="1" stop-color="#264da6"/></linearGradient></defs><g id="item-Ğ¼" transform="translate(117.49 192)"><path id="Path_62" data-name="Path 62" class="cls-1" d="M372.488 15.2c0-.062.005-.123.007-.185A14.521 14.521 0 0 0 358.48.053c-3.265-.12-80.5-2.424-125.733 42.6-17.407 17.322-26.169 36.177-26.042 56.037a71.112 71.112 0 0 0 4.307 23.478c-5.406 4.653-10.249 9.14-14.487 13.512a122.041 122.041 0 0 0-11.716 13.9c-8.84-17.919-20.978-31.145-36.074-44.011 2.744-7.271 5.837-17.854 4.712-30.285-1.587-17.538-10.891-33.406-27.654-47.162C82.7-7.244 15.974 1.03 13.155 1.4A14.491 14.491 0 0 0 .609 17.438c.618 8.237 6.59 70.378 47.655 104.077 14.849 12.186 30.3 18.338 46.025 18.338q2.834 0 5.681-.267c.223-.021 17.69-1.767 32.013-10.186 18.02 15.662 28.771 30.365 34.863 56.1H127.9a14.492 14.492 0 1 0 0 28.984h7.28V320.28a50.961 50.961 0 0 0 101.92 0v-47.824a14.56 14.56 0 0 0-29.12 0v47.824a21.841 21.841 0 0 1-43.681 0V214.487h80.08a14.492 14.492 0 1 0 0-28.984H200.09c2.116-12.2 9.66-23.121 25.062-37.068 14.53 13.494 31 17.175 44.64 17.175a80.683 80.683 0 0 0 28.272-5.137c10.97-4.2 21.6-11.379 31.595-21.328C372.39 96.616 372.688 25.655 372.488 15.2zm-248.4 70.921l-3.564-2.695C112.158 77.1 102.679 69.938 92.6 61.888a14.606 14.606 0 0 0-20.469 2.233 14.446 14.446 0 0 0 2.243 20.373c10.384 8.294 20.028 15.583 28.537 22.014l3.2 2.416a53.872 53.872 0 0 1-8.872 1.808c-9.87.925-19.826-2.861-30.447-11.578-22.782-18.7-31.781-51.121-35.2-69.823 19.133-.209 52.891 2.451 75.678 21.151 10.683 8.767 16.3 17.729 17.176 27.4a32.089 32.089 0 0 1-.361 8.236zM309.07 118.65c-7.129 7.095-14.381 12.077-21.556 14.809-.2.077-.24.089-.418.166-1.5.595-22.418 8.518-39.149-3.953 11.706-9.033 25.868-19.395 42.863-31.729A14.448 14.448 0 0 0 294 77.695a14.605 14.605 0 0 0-20.344-3.171c-13.786 10-26.381 19.147-37.614 27.656a36.869 36.869 0 0 1-.214-3.675c-.076-11.989 5.652-23.556 17.515-35.362 25.87-25.749 67.637-32.134 89.565-33.673-1.549 21.83-7.958 63.422-33.838 89.18z" transform="translate(0 -38)"/><path id="Subtraction_2" data-name="Subtraction 2" class="cls-1" d="M304 608a306.246 306.246 0 0 1-61.267-6.176 302.334 302.334 0 0 1-108.7-45.742A304.888 304.888 0 0 1 23.89 422.33a302.47 302.47 0 0 1-17.714-57.064 306.964 306.964 0 0 1 0-122.533 302.332 302.332 0 0 1 45.742-108.7A304.889 304.889 0 0 1 185.669 23.89a302.469 302.469 0 0 1 57.064-17.714 306.964 306.964 0 0 1 122.533 0 302.332 302.332 0 0 1 108.7 45.742A304.889 304.889 0 0 1 584.11 185.669a302.474 302.474 0 0 1 17.714 57.064 306.966 306.966 0 0 1 0 122.533 302.335 302.335 0 0 1-45.742 108.7A304.888 304.888 0 0 1 422.33 584.11a302.475 302.475 0 0 1-57.064 17.714A306.247 306.247 0 0 1 304 608zm0-565.907C159.584 42.092 42.092 159.584 42.092 304S159.584 565.908 304 565.908 565.908 448.416 565.908 304 448.416 42.092 304 42.092z" transform="translate(-117.49 -192)"/></g></svg>