<svg xmlns="http://www.w3.org/2000/svg" viewBox="0 0 496 496"><g fill="#f9f5f5"><path d="M80 344c-26.472 0-48 21.528-48 48s21.528 48 48 48c10.48 0 20.448-3.32 28.816-9.6L99.2 417.6c-5.568 4.192-12.208 6.4-19.2 6.4-17.648 0-32-14.352-32-32s14.352-32 32-32 32 14.352 32 32c0 4.912-1.08 9.624-3.208 13.992l14.368 7.016c3.216-6.568 4.84-13.64 4.84-21.008 0-26.472-21.528-48-48-48z"/><path d="M422.432 123.048C428.272 130.864 437.512 136 448 136h48V72h-48c-10.488 0-19.728 5.136-25.568 12.952C418.408 81.888 413.44 80 408 80c-10.416 0-19.216 6.712-22.528 16H160V80c0-44.112-35.888-80-80-80S0 35.888 0 80v312c0 44.112 35.888 80 80 80h305.472c3.312 9.288 12.112 16 22.528 16 5.44 0 10.408-1.888 14.432-4.952C428.272 490.864 437.512 496 448 496h48v-64h-48c-10.488 0-19.728 5.136-25.568 12.952a23.928 23.928 0 0 0-6.432-3.48V366.52a23.59 23.59 0 0 0 6.432-3.48c5.84 7.824 15.08 12.96 25.568 12.96h48v-64h-48c-10.488 0-19.728 5.136-25.568 12.952a23.928 23.928 0 0 0-6.432-3.48V246.52a23.59 23.59 0 0 0 6.432-3.48c5.84 7.824 15.08 12.96 25.568 12.96h48v-64h-48c-10.488 0-19.728 5.136-25.568 12.952a24.152 24.152 0 0 0-6.432-3.48v-74.944a23.59 23.59 0 0 0 6.432-3.48zM448 88h32v8h-24v16h24v8h-32c-8.824 0-16-7.184-16-16s7.176-16 16-16zm0 360h32v8h-24v16h24v8h-32c-8.824 0-16-7.176-16-16s7.176-16 16-16zm0-120h32v8h-24v16h24v8h-32c-8.824 0-16-7.176-16-16s7.176-16 16-16zm0-120h32v8h-24v16h24v8h-32c-8.824 0-16-7.176-16-16s7.176-16 16-16zm-288-32h136v216H160V176zm-1.616 232H312V160H160v-16h176v280H153.272c2.232-5.088 3.976-10.432 5.112-16zM16 80c0-35.288 28.712-64 64-64s64 28.712 64 64v264.208C129.4 324.704 106.184 312 80 312s-49.4 12.704-64 32.208V80zm64 376c-35.288 0-64-28.712-64-64s28.712-64 64-64 64 28.712 64 64-28.712 64-64 64zm305.472.024h-257.68A81.36 81.36 0 0 0 144 439.792V440h224v-16h-16v-72h16v-16h-16V232h16v-16h-16v-72h16v-16H160v-16h225.472A23.956 23.956 0 0 0 400 126.528v74.952c-9.296 3.312-16 12.112-16 22.528s6.704 19.216 16 22.528v74.952c-9.296 3.312-16 12.112-16 22.528 0 10.416 6.704 19.216 16 22.528v74.952a23.976 23.976 0 0 0-14.528 14.528zM408 472c-4.416 0-8-3.584-8-8s3.584-8 8-8 8 3.584 8 8-3.584 8-8 8zm0-120c-4.416 0-8-3.584-8-8s3.584-8 8-8 8 3.584 8 8-3.584 8-8 8zm0-120c-4.416 0-8-3.584-8-8s3.584-8 8-8 8 3.584 8 8-3.584 8-8 8zm0-120c-4.416 0-8-3.584-8-8s3.584-8 8-8 8 3.584 8 8-3.584 8-8 8z"/></g></svg>