<svg xmlns="http://www.w3.org/2000/svg" viewBox="0 0 512 496.2"><path fill="#f9f5f5" d="M511.6 6.6c-1-3.1-3.8-5.2-7.1-5.3-16.3-.7-60.9-.6-122.4 15.2C324.8 31 271.1 55.1 226.7 86c-3.5 2.5-4.4 7.3-1.9 10.8s7.3 4.4 10.8 1.9c42.9-29.9 94.9-53.1 150.4-67.3 20.7-5.3 42.2-9.3 62.5-11.8-8.3 3.6-17.3 7.8-26.6 12.7-62.9 33.4-98 76-117.4 110.3-2.5-11.4-3.2-24.6-3.3-30.5 0-4.3-3.5-7.8-7.8-7.8s-7.8 3.5-7.8 7.8c0 3.4.3 32.1 9 49.8-12 25.6-23.2 51.1-34 75.9-4.6 10.5-9.1 20.9-13.6 31-7-13.2-16.2-37.1-13.7-68.3.3-4.3-2.8-8-7.1-8.4-4.3-.3-8 2.8-8.4 7.1-3.6 44.9 14.2 76.2 21.4 86.9-13.6 30-27 57.6-41 81.2-7.3-16.4-18.6-47.7-18.6-82.6 0-4.3-3.5-7.8-7.8-7.8s-7.8 3.5-7.8 7.8c0 46.2 17.9 85.5 24.3 98.2-15.4 23-31.8 41-50.4 51.9-56.6-61.4-62.1-176.7 36.7-283.5 11.2-12.1 23.6-23.7 36.6-34.4 3.3-2.7 3.8-7.6 1.1-10.9-2.7-3.3-7.6-3.8-10.9-1.1-13.6 11.2-26.5 23.2-38.2 35.9-104.1 112.7-98.3 235.4-38.5 302.6-52.1 35-116.5 37.2-117.1 37.2-4.3.1-7.7 3.7-7.6 8 .1 4.2 3.6 7.6 7.8 7.6H8c3-.1 71.7-2.3 128-41.6 17.1 13.9 43.8 22.4 76.2 22.4 36.7 0 80.7-10.9 126.2-36.9 42.1-24.2 72.3-61.1 89.7-109.9 14.9-41.7 20-91.9 14.6-145.2-9.7-95 26.2-137.8 66.4-170 2.5-2 3.5-5.4 2.5-8.4zm-68.7 63.6c-15.3 32-20.4 70.1-15.7 116.4 5.2 51 .4 98.8-13.7 138.4-16.2 45.2-44 79.3-82.8 101.6-49 28.1-90.1 34.5-115.9 34.9-26.4.4-49.3-5.2-64.6-15.7 12.8-8.3 24.5-19.4 35.5-32.8h2c7.6 0 21.9-.3 38.6-2.3 33.6-3.9 60-12.2 78.7-24.6 3.6-2.4 4.5-7.2 2.2-10.8s-7.2-4.5-10.8-2.2c-28.7 19.1-74.9 23.3-98.8 24.1 15.1-21.6 29.1-47.5 42.8-76.2 13.5 0 49.4-3 83.5-30.2 3.4-2.7 3.9-7.6 1.2-10.9-2.7-3.4-7.6-3.9-10.9-1.2-25.1 20-51.6 25.1-66.3 26.4 9-19.4 17.9-39.9 27.2-61 4.8-10.9 9.6-21.9 14.6-33.1h1.7c11.7 0 35.1-2.9 60.7-21.9 3.5-2.6 4.2-7.4 1.6-10.9-2.6-3.4-7.4-4.2-10.9-1.6-15.8 11.7-30.4 16.1-39.8 17.8-2.3.4-4.4.6-6.3.8 4.5-10.1 9.2-20.1 13.9-30.2 29-61.5 80.4-98.5 118.4-118.7 16.5-8.8 31.9-15.3 44.6-19.9-11.3 11.8-22.2 26.1-30.7 43.8z"/></svg>