<svg xmlns="http://www.w3.org/2000/svg" viewBox="0 0 512 512"><path fill="#f9f5f5" d="M318.295 94.221c-61.778-61.777-162.297-61.777-224.075 0-61.777 61.778-61.777 162.298 0 224.075 30.889 30.889 71.463 46.333 112.037 46.333 40.574 0 81.148-15.445 112.037-46.333 61.778-61.778 61.778-162.297.001-224.075zM304.37 304.37c-54.099 54.1-142.125 54.1-196.223 0-54.099-54.099-54.099-142.125 0-196.223 27.05-27.05 62.58-40.575 98.112-40.575s71.062 13.524 98.112 40.575c54.098 54.098 54.098 142.124-.001 196.223z"/><path fill="#f9f5f5" d="M495.198 413.935l-75.755-75.755a9.85 9.85 0 0 0-13.926 0l-26.706 26.706-19.913-19.913c73.552-80.846 71.293-206.475-6.792-284.561C313.148 21.455 261.351.001 206.258.001c-55.093 0-106.889 21.455-145.846 60.411C21.455 99.369 0 151.165 0 206.259c0 55.093 21.455 106.89 60.412 145.847 38.956 38.956 90.753 60.411 145.846 60.411 51.798 0 100.679-18.97 138.719-53.614l19.909 19.909-26.706 26.706c-3.845 3.845-3.845 10.08 0 13.925l75.753 75.754c11.203 11.202 25.916 16.802 40.632 16.802 14.714 0 29.43-5.601 40.632-16.802 22.404-22.404 22.404-58.858.001-81.262zM338.18 338.179c-35.237 35.238-82.088 54.644-131.922 54.644s-96.683-19.407-131.921-54.644c-35.238-35.237-54.644-82.088-54.644-131.921s19.406-96.683 54.644-131.921c35.237-35.238 82.088-54.644 131.921-54.644s96.683 19.406 131.922 54.644c72.741 72.742 72.741 191.101 0 263.842zm143.091 143.093c-14.727 14.727-38.688 14.725-53.412 0l-40.669-40.669 12.781-12.781c3.845-3.845 3.845-10.08 0-13.925-3.845-3.845-10.078-3.845-13.926 0l-12.781 12.781-14.198-14.198 26.701-26.701.005-.005.005-.005 26.701-26.701 68.792 68.792c14.727 14.725 14.727 38.686.001 53.412z"/><path fill="#f9f5f5" d="M423.553 398.052a9.192 9.192 0 0 0-.57-1.841 9.076 9.076 0 0 0-.906-1.703 9.374 9.374 0 0 0-1.22-1.497 9.388 9.388 0 0 0-1.498-1.221 10.02 10.02 0 0 0-1.694-.906 10.448 10.448 0 0 0-1.841-.561 9.746 9.746 0 0 0-3.85 0 9.938 9.938 0 0 0-3.543 1.467 9.388 9.388 0 0 0-1.498 1.221 9.923 9.923 0 0 0-2.885 6.962c0 2.59 1.054 5.13 2.885 6.962.453.453.956.867 1.498 1.221.532.354 1.103.66 1.702.906a9.272 9.272 0 0 0 1.841.561c.631.128 1.28.197 1.92.197 2.6 0 5.13-1.054 6.962-2.885a9.32 9.32 0 0 0 1.22-1.497c.364-.532.66-1.103.906-1.703a9.215 9.215 0 0 0 .571-1.841c.129-.63.187-1.28.187-1.92s-.059-1.292-.187-1.922zM287.818 250.459l-25.35-7.845c.558-3.197.866-6.479.866-9.833v-1.347h21.574c5.437 0 9.847-4.408 9.847-9.847 0-5.438-4.409-9.847-9.847-9.847h-21.574v-13.417h.001l24.485-7.577c5.195-1.608 8.103-7.122 6.496-12.317a9.844 9.844 0 0 0-12.317-6.496l-19.663 6.084c-3.728-15.286-17.53-26.67-33.947-26.67h-2.924l8.936-13.372c3.021-4.522 1.806-10.636-2.716-13.658-4.523-3.019-10.636-1.806-13.658 2.716l-11.376 17.024-11.376-17.024c-3.021-4.522-9.139-5.738-13.657-2.716-4.523 3.021-5.738 9.136-2.717 13.658l8.936 13.372h-3.707c-16.417 0-30.219 11.383-33.947 26.67l-19.663-6.084c-5.193-1.608-10.709 1.3-12.317 6.496-1.608 5.195 1.3 10.709 6.496 12.317l24.485 7.577v13.417H127.61c-5.437 0-9.847 4.408-9.847 9.847 0 5.438 4.409 9.847 9.847 9.847h21.574v1.347c0 3.354.307 6.637.866 9.833l-25.35 7.845c-5.195 1.608-8.103 7.122-6.496 12.318 1.308 4.226 5.2 6.938 9.404 6.938.964 0 1.945-.143 2.914-.442l26.245-8.122c9.86 17.135 28.346 28.706 49.494 28.706 21.149 0 39.634-11.571 49.494-28.706L282 269.273c.969.3 1.949.442 2.914.442 4.204 0 8.096-2.713 9.404-6.938 1.604-5.195-1.304-10.71-6.5-12.318zm-91.407 18.38c-15.849-4.333-27.536-18.852-27.536-36.057v-14.214h27.536v50.271zm47.23-36.057c0 17.205-11.687 31.724-27.536 36.057v-50.271h27.536v14.214zm0-41.783v7.875h-74.766v-12.579c0-8.411 6.842-15.253 15.253-15.253h44.261c8.41 0 15.252 6.842 15.252 15.253v4.704z"/></svg>