<svg xmlns="http://www.w3.org/2000/svg" viewBox="0 0 511.998 511.998"><path fill="#f9f5f5" d="M416.099 330.649c-15.696-14.533-23.471-29.729-22.484-43.946.826-11.893 7.663-22.635 19.772-31.068 28.139-19.597 26.741-45.711 16.995-62.121-11.646-19.607-34.198-27.506-52.459-18.377-4.226 2.113-7.684 5.5-11.345 9.086-5.326 5.217-10.834 10.612-19.339 12.932-5.583 1.522-12.136.479-17.1-2.724-3.69-2.38-6.03-5.61-6.587-9.095-2.243-14.017 8.266-27.098 19.392-40.947 11.494-14.308 23.38-29.101 20.693-46.362-4.378-28.129-29.188-42.767-50.322-42.246-21.214.517-36.401 14.817-38.693 36.429-2.718 25.618-10.017 42.902-20.554 48.669-6.763 3.701-15.504 2.923-25.98-2.315-14.969-7.485-28.995-8.962-40.562-4.272-9.667 3.92-16.839 11.884-20.741 23.031-7.139 20.4 5.698 34.779 14.192 44.295 1.856 2.079 3.609 4.043 4.958 5.813 7.337 9.629 2.94 22.219-5.549 28.826-13.168 10.252-27.259 2.081-36.055-8.981-23.44-29.479-50.201-43.475-71.576-37.439-14.586 4.119-24.271 17.31-26.574 36.189-3.521 28.876 20.747 40.486 42.157 50.729 13.841 6.622 28.151 13.468 33.495 24.169 3.933 7.876-1.027 15.363-10.881 29.007-12.37 17.127-29.31 40.582-21.219 76.024 7.671 33.596 31.104 55.242 64.295 59.387 3.72.464 7.443.69 11.14.69 29.801 0 57.914-14.678 69.482-37.288 14.92-29.161 30.897-45.074 47.491-47.295 22.751-3.045 44.326 20.622 55.916 33.337a433.087 433.087 0 0 0 3.337 3.635c14.3 15.32 37.124 21.254 59.581 15.481 21.516-5.532 37.763-20.361 42.4-38.7 6.653-26.318-11.16-49.631-27.276-64.553zm12.733 60.877c-3.291 13.015-15.397 23.687-31.594 27.85-13.427 3.452-32.268 2.325-44.879-11.188a407.909 407.909 0 0 1-3.218-3.505c-13.438-14.745-38.437-42.19-68.992-38.1-21.76 2.913-41.561 21.529-58.854 55.331-10.066 19.674-38.184 31.946-65.41 28.545-26.563-3.316-45.345-20.754-51.529-47.841-6.581-28.823 6.879-47.46 18.755-63.904 9.986-13.827 20.313-28.124 12.141-44.49-7.645-15.309-24.317-23.286-40.441-30.999-22.295-10.665-35.851-18.08-33.741-35.381.902-7.396 4.149-20.292 15.762-23.57 1.896-.536 3.906-.797 6.009-.797 14.419 0 33.196 12.319 49.75 33.137 18.952 23.832 42.289 22.94 57.009 11.482 7.215-5.616 12.419-13.819 14.28-22.506 2.086-9.744-.049-19.42-6.013-27.247-1.702-2.234-3.644-4.409-5.699-6.711-9.328-10.45-15.149-18.138-11.224-29.351 2.471-7.061 6.583-11.8 12.22-14.086 7.351-2.982 17.373-1.636 28.217 3.787 15.136 7.569 28.556 8.26 39.89 2.057 15.412-8.435 24.922-28.703 28.268-60.245 1.493-14.08 10.519-22.685 24.143-23.017 14.772-.372 32.072 9.879 35.135 29.557 1.669 10.72-7.674 22.35-17.564 34.661-12.096 15.056-25.804 32.12-22.51 52.711 1.239 7.745 5.951 14.609 13.268 19.33 8.561 5.522 19.467 7.238 29.178 4.59 12.268-3.346 19.82-10.744 25.888-16.688 2.795-2.738 5.437-5.325 7.557-6.385 9.478-4.739 24.214-1.926 32.853 12.622 6.771 11.397 6.996 28.454-12.671 42.151-15.737 10.959-25.029 25.995-26.163 42.339-.915 13.182 3.071 33.596 27.256 55.991 18.835 17.44 26.762 34.686 22.923 49.87zM105.049 70.862C103.447 59.97 99.306 48.14 93.388 37.55 79.63 12.93 59.524-.725 38.228.03 23.163.578 9.96 9.574 3.769 23.507-3.857 40.671.237 61.22 14.72 78.477c17.248 20.552 41.337 33.932 60.724 33.932.752 0 1.498-.02 2.236-.061 10.085-.556 18.098-4.875 23.173-12.488 5.729-8.593 5.444-20.512 4.196-28.998zM88.373 91.539c-2.42 3.63-6.188 5.538-11.52 5.832-14.79.819-36.082-11.185-50.644-28.537-10.712-12.764-13.977-27.432-8.732-39.237 3.904-8.786 11.865-14.236 21.297-14.579.402-.015.798-.022 1.196-.022 21.3 0 35.256 20.798 40.325 29.868 8.63 15.446 13.936 37.887 8.078 46.675zm134.51-38.984c-1.203-7.046-9.866-26.817-24.167-33.938-7.044-3.506-14.448-3.455-21.411.15-10.97 5.681-17.302 15.874-16.938 27.265.413 12.962 9.154 24.431 23.382 30.682 6.882 3.024 12.593 4.166 17.295 4.166 6.458 0 11.013-2.155 14.078-4.548 6.53-5.1 9.432-13.989 7.761-23.777zM205.89 64.51c-2.847 2.224-8.87 1.652-16.107-1.528-8.807-3.87-14.199-10.386-14.424-17.429-.177-5.557 3.046-10.465 8.844-13.468 2.682-1.39 5.097-1.403 7.828-.042 8.559 4.261 15.369 18.945 16.067 23.034.715 4.196-.129 7.81-2.208 9.433zm259.861 13.271c-1.092-6.563-4.604-11.614-10.157-14.606-5.368-2.893-12.478-3.67-21.131-2.307-11.937 1.878-22.004 11.469-27.619 26.311-4.862 12.852-6.133 30.21 1.989 40.025 3.558 4.299 8.456 6.56 14.058 6.56 1.265 0 2.566-.116 3.896-.349 9.845-1.727 20.26-9.633 28.575-21.693 8.089-11.729 11.973-24.418 10.389-33.941zm-41.556 40.861c-2.599.457-3.355-.456-3.808-1-2.98-3.604-3.643-14.245.485-25.154 3.602-9.52 9.554-15.801 15.923-16.803 13.055-2.052 13.859 2.749 14.159 4.557 2.087 12.55-14.418 36.236-26.759 38.4zm81.476 343.1c-9.121-11.994-26.101-18.965-40.364-16.581-10.943 1.83-18.922 8.751-22.467 19.489-6.121 18.542 7.773 38.137 24.591 44.805 4.32 1.713 8.594 2.543 12.706 2.543 12.219 0 22.995-7.339 29.206-20.668 4.546-9.756 3.209-20.539-3.672-29.588zm-9.924 23.253c-2.872 6.164-9.652 15.727-22.787 10.518-12.405-4.919-18.613-17.868-15.876-26.159 1.789-5.418 5.287-8.492 10.696-9.396a20.088 20.088 0 0 1 3.32-.266c8.176 0 17.581 4.49 22.632 11.132 3.546 4.663 4.224 9.43 2.015 14.171z"/></svg>