<svg xmlns="http://www.w3.org/2000/svg" viewBox="0 0 266.6 437"><defs><style>.cls-1{fill:url(#linear-gradient)}.cls-2{fill:#3dd0f2}</style><linearGradient id="linear-gradient" x1="1.069" y1=".082" x2=".169" y2=".97" gradientUnits="objectBoundingBox"><stop offset="0" stop-color="#f000ff"/><stop offset="1" stop-color="#460f41"/></linearGradient></defs><g id="item-VV" transform="translate(-17.2 -320)"><path id="Path_52" data-name="Path 52" class="cls-1" d="M351.8 231.5v49.6a7.555 7.555 0 0 1-7.5 7.5h-13.4L320.7 430a7.534 7.534 0 0 1-7.5 7H123.8a7.529 7.529 0 0 1-7.5-7l-10.2-141.4H92.7a7.555 7.555 0 0 1-7.5-7.5v-49.6a7.555 7.555 0 0 1 7.5-7.5H211V110.3A103.232 103.232 0 0 1 115.4 7.5a7.555 7.555 0 0 1 7.5-7.5 103.233 103.233 0 0 1 95.6 64.5A103.233 103.233 0 0 1 314.1 0a7.555 7.555 0 0 1 7.5 7.5A103.237 103.237 0 0 1 226 110.3V224h118.3a7.555 7.555 0 0 1 7.5 7.5zm-15 42.1V239H100.2v34.6zM306.2 422l9.6-133.4H121.2l9.6 133.4h49.6v-29.4l-18.9-18.9a19.948 19.948 0 1 1 11.9-18.2 21.231 21.231 0 0 1-1.4 7.5l21.3 21.3a7.493 7.493 0 0 1 2.2 5.3V422H211v-89.5a20 20 0 1 1 15 0V422h15.6v-50.5a7.493 7.493 0 0 1 2.2-5.3l21.3-21.3a20.463 20.463 0 0 1-1.5-7.5 20 20 0 1 1 20 20 18.474 18.474 0 0 1-8.1-1.8l-18.9 18.9V422zm-17.6-84.5a4.951 4.951 0 0 0-5-5 5 5 0 0 0 0 10 4.951 4.951 0 0 0 5-5zM226.3 95.3a88.288 88.288 0 0 0 79.9-79.9 88.2 88.2 0 0 0-79.9 79.9zM223.5 314a5.015 5.015 0 0 0-5-5 5 5 0 1 0 5 5zM210.7 95.3a88.288 88.288 0 0 0-79.9-79.9 88.2 88.2 0 0 0 79.9 79.9zm-52.3 260.2a4.951 4.951 0 0 0-5-5 5.015 5.015 0 0 0-5 5 5 5 0 0 0 10 0z" transform="translate(-68 320)"/></g></svg>