<svg xmlns="http://www.w3.org/2000/svg" viewBox="0 0 363.605 235.689"><defs><style>.cls-1{fill:url(#linear-gradient)}</style><linearGradient id="linear-gradient" y1="2.979" x2="1.944" y2="2.426" gradientUnits="objectBoundingBox"><stop offset="0" stop-color="#460f41"/><stop offset="1" stop-color="#f000ff"/></linearGradient></defs><g id="item-1" transform="translate(0 -63.958)"><g id="Group_1" data-name="Group 1"><path id="Path_11" data-name="Path 11" class="cls-1" d="M192.486 63.958c-5.348 0-8.67 4.827-8.67 12.6.071 7.678 3.246 12.448 8.285 12.448 5.51 0 8.67-4.655 8.67-12.771 0-7.686-3.097-12.277-8.285-12.277zm-.211 21.168c-2.391 0-3.875-3.271-3.875-8.537 0-5.313 1.535-8.747 3.912-8.747 3.37 0 3.873 5.349 3.873 8.537.001 3.267-.507 8.747-3.91 8.747z"/></g><g id="Group_2" data-name="Group 2"><path id="Path_12" data-name="Path 12" class="cls-1" d="M204.8 70.288a.751.751 0 0 0 1.084.477l2.925-1.579v18.687a.75.75 0 0 0 .75.75h2.98a.75.75 0 0 0 .75-.75V65.094a.75.75 0 0 0-.75-.75h-2.631a.744.744 0 0 0-.354.089l-4.977 2.667a.751.751 0 0 0-.374.845z"/></g><g id="Group_3" data-name="Group 3"><path id="Path_13" data-name="Path 13" class="cls-1" d="M226.994 89.009c5.511 0 8.672-4.655 8.672-12.771 0-7.689-3.1-12.28-8.285-12.28-5.348 0-8.67 4.827-8.67 12.6.069 7.682 3.243 12.451 8.283 12.451zm.211-21.167c3.373 0 3.877 5.349 3.877 8.537 0 3.267-.508 8.747-3.912 8.747-2.392 0-3.877-3.271-3.877-8.537 0-5.313 1.535-8.747 3.912-8.747z"/></g><g id="Group_4" data-name="Group 4"><path id="Path_14" data-name="Path 14" class="cls-1" d="M247.43 63.958c-5.348 0-8.67 4.827-8.67 12.6.071 7.678 3.246 12.448 8.285 12.448 5.511 0 8.672-4.655 8.672-12.771 0-7.686-3.098-12.277-8.287-12.277zm-.209 21.168c-2.392 0-3.877-3.271-3.877-8.537 0-5.313 1.535-8.747 3.912-8.747 3.371 0 3.875 5.349 3.875 8.537 0 3.267-.508 8.747-3.91 8.747z"/></g><g id="Group_5" data-name="Group 5"><path id="Path_15" data-name="Path 15" class="cls-1" d="M259.741 70.288a.751.751 0 0 0 1.084.477l2.927-1.579v18.687a.75.75 0 0 0 .75.75h2.979a.75.75 0 0 0 .75-.75V65.094a.75.75 0 0 0-.75-.75h-2.629a.744.744 0 0 0-.354.089l-4.975 2.667a.749.749 0 0 0-.374.844z"/></g><g id="Group_6" data-name="Group 6"><path id="Path_16" data-name="Path 16" class="cls-1" d="M283.392 63.958c-5.348 0-8.67 4.827-8.67 12.6.071 7.678 3.246 12.448 8.285 12.448 5.51 0 8.67-4.655 8.67-12.771.001-7.686-3.097-12.277-8.285-12.277zm-.21 21.168c-2.391 0-3.875-3.271-3.875-8.537 0-5.313 1.535-8.747 3.912-8.747 3.371 0 3.875 5.349 3.875 8.537 0 3.267-.508 8.747-3.912 8.747z"/></g><g id="Group_7" data-name="Group 7"><path id="Path_17" data-name="Path 17" class="cls-1" d="M295.706 70.288a.751.751 0 0 0 1.084.477l2.925-1.579v18.688a.75.75 0 0 0 .75.75h2.978a.75.75 0 0 0 .75-.75v-22.78a.75.75 0 0 0-.75-.75h-2.629a.737.737 0 0 0-.353.089l-4.975 2.667a.751.751 0 0 0-.374.845z"/></g><g id="Group_8" data-name="Group 8"><path id="Path_18" data-name="Path 18" class="cls-1" d="M318.971 89.009c5.511 0 8.672-4.655 8.672-12.771 0-7.689-3.1-12.28-8.285-12.28-5.349 0-8.672 4.827-8.672 12.6.071 7.682 3.246 12.451 8.285 12.451zm.211-21.167c3.371 0 3.875 5.349 3.875 8.537 0 3.267-.508 8.747-3.91 8.747-2.392 0-3.877-3.271-3.877-8.537 0-5.313 1.53-8.747 3.912-8.747z"/></g><g id="Group_9" data-name="Group 9"><path id="Path_19" data-name="Path 19" class="cls-1" d="M331.667 70.288a.751.751 0 0 0 1.084.477l2.925-1.579v18.687a.75.75 0 0 0 .75.75h2.974a.75.75 0 0 0 .75-.75V65.094a.75.75 0 0 0-.75-.75h-2.627a.744.744 0 0 0-.354.089l-4.972 2.667a.75.75 0 0 0-.374.845z"/></g><g id="Group_10" data-name="Group 10"><path id="Path_20" data-name="Path 20" class="cls-1" d="M355.32 63.958c-5.349 0-8.672 4.827-8.672 12.6.071 7.678 3.246 12.448 8.285 12.448 5.511 0 8.672-4.655 8.672-12.771 0-7.686-3.097-12.277-8.285-12.277zm-.213 21.168c-2.389 0-3.873-3.271-3.873-8.537 0-5.313 1.535-8.747 3.91-8.747 3.373 0 3.877 5.349 3.877 8.537.001 3.267-.508 8.747-3.914 8.747z"/></g><g id="Group_11" data-name="Group 11"><path id="Path_21" data-name="Path 21" class="cls-1" d="M191.574 130.686h2.98a.75.75 0 0 0 .75-.75v-22.779a.75.75 0 0 0-.75-.75h-2.629a.744.744 0 0 0-.354.089l-4.977 2.662a.748.748 0 0 0-.373.846l.6 2.349a.751.751 0 0 0 1.083.476l2.923-1.578v18.686a.751.751 0 0 0 .747.749z"/></g><g id="Group_12" data-name="Group 12"><path id="Path_22" data-name="Path 22" class="cls-1" d="M210.082 131.072c5.511 0 8.672-4.654 8.672-12.77 0-7.689-3.1-12.28-8.285-12.28-5.349 0-8.672 4.826-8.672 12.6.071 7.678 3.246 12.45 8.285 12.45zm.211-21.167c3.371 0 3.875 5.349 3.875 8.537 0 3.267-.508 8.747-3.91 8.747-2.392 0-3.877-3.271-3.877-8.538 0-5.313 1.535-8.751 3.912-8.751z"/></g><g id="Group_13" data-name="Group 13"><path id="Path_23" data-name="Path 23" class="cls-1" d="M223.862 112.829l2.927-1.58v18.687a.75.75 0 0 0 .75.75h2.979a.75.75 0 0 0 .75-.75v-22.779a.75.75 0 0 0-.75-.75h-2.629a.744.744 0 0 0-.354.089l-4.977 2.662a.75.75 0 0 0-.374.845l.594 2.349a.751.751 0 0 0 1.084.477z"/></g><g id="Group_14" data-name="Group 14"><path id="Path_24" data-name="Path 24" class="cls-1" d="M246.045 131.072c5.511 0 8.672-4.654 8.672-12.77 0-7.689-3.1-12.28-8.287-12.28-5.348 0-8.67 4.826-8.67 12.6.071 7.678 3.246 12.45 8.285 12.45zm.211-21.167c3.371 0 3.875 5.349 3.875 8.537 0 3.267-.508 8.747-3.91 8.747-2.392 0-3.877-3.271-3.877-8.538 0-5.313 1.535-8.751 3.912-8.751z"/></g><g id="Group_15" data-name="Group 15"><path id="Path_25" data-name="Path 25" class="cls-1" d="M258.741 112.352a.751.751 0 0 0 1.084.477l2.927-1.579v18.686a.75.75 0 0 0 .75.75h2.979a.75.75 0 0 0 .75-.75v-22.779a.75.75 0 0 0-.75-.75h-2.629a.744.744 0 0 0-.354.089l-4.975 2.662a.749.749 0 0 0-.374.844z"/></g><g id="Group_16" data-name="Group 16"><path id="Path_26" data-name="Path 26" class="cls-1" d="M282.392 106.022c-5.348 0-8.67 4.826-8.67 12.6.071 7.678 3.246 12.448 8.285 12.448 5.51 0 8.67-4.654 8.67-12.77.001-7.687-3.097-12.278-8.285-12.278zm-.21 21.167c-2.391 0-3.875-3.271-3.875-8.538 0-5.313 1.535-8.747 3.912-8.747 3.371 0 3.875 5.349 3.875 8.537 0 3.268-.508 8.748-3.912 8.748z"/></g><g id="Group_17" data-name="Group 17"><path id="Path_27" data-name="Path 27" class="cls-1" d="M300.99 131.072c5.51 0 8.67-4.654 8.67-12.77 0-7.689-3.1-12.28-8.285-12.28-5.348 0-8.67 4.826-8.67 12.6.069 7.678 3.244 12.45 8.285 12.45zm.21-21.172c3.371 0 3.875 5.349 3.875 8.537 0 3.267-.508 8.747-3.91 8.747-2.391 0-3.875-3.271-3.875-8.538-.001-5.308 1.534-8.746 3.91-8.746z"/></g><g id="Group_18" data-name="Group 18"><path id="Path_28" data-name="Path 28" class="cls-1" d="M318.445 130.686h2.978a.75.75 0 0 0 .75-.75v-22.779a.75.75 0 0 0-.75-.75H318.8a.744.744 0 0 0-.354.089l-4.977 2.662a.75.75 0 0 0-.374.845l.594 2.349a.751.751 0 0 0 1.084.477l2.925-1.579v18.686a.751.751 0 0 0 .747.75z"/></g><g id="Group_19" data-name="Group 19"><path id="Path_29" data-name="Path 29" class="cls-1" d="M337.338 106.022c-5.349 0-8.672 4.826-8.672 12.6.071 7.678 3.246 12.448 8.285 12.448 5.511 0 8.672-4.654 8.672-12.77 0-7.687-3.098-12.278-8.285-12.278zm-.211 21.167c-2.391 0-3.875-3.271-3.875-8.538 0-5.313 1.535-8.747 3.91-8.747 3.371 0 3.875 5.349 3.875 8.537 0 3.268-.508 8.748-3.91 8.748z"/></g><g id="Group_20" data-name="Group 20"><path id="Path_30" data-name="Path 30" class="cls-1" d="M192.486 148.085c-5.348 0-8.67 4.826-8.67 12.6.071 7.678 3.246 12.448 8.285 12.448 5.51 0 8.67-4.654 8.67-12.769 0-7.688-3.097-12.279-8.285-12.279zm-.211 21.168c-2.391 0-3.875-3.271-3.875-8.537 0-5.314 1.535-8.748 3.912-8.748 3.37 0 3.873 5.349 3.873 8.537.001 3.267-.507 8.748-3.91 8.748z"/></g><g id="Group_21" data-name="Group 21"><path id="Path_31" data-name="Path 31" class="cls-1" d="M211.469 148.085c-5.349 0-8.672 4.826-8.672 12.6.071 7.678 3.246 12.448 8.285 12.448 5.511 0 8.672-4.654 8.672-12.769 0-7.688-3.098-12.279-8.285-12.279zm-.211 21.168c-2.392 0-3.877-3.271-3.877-8.537 0-5.314 1.535-8.748 3.912-8.748 3.371 0 3.875 5.349 3.875 8.537 0 3.267-.508 8.748-3.91 8.748z"/></g><g id="Group_22" data-name="Group 22"><path id="Path_32" data-name="Path 32" class="cls-1" d="M228.539 172.75h2.979a.75.75 0 0 0 .75-.75v-22.779a.75.75 0 0 0-.75-.75h-2.629a.744.744 0 0 0-.354.089l-4.977 2.663a.751.751 0 0 0-.374.845l.594 2.348a.752.752 0 0 0 1.084.476l2.927-1.579V172a.75.75 0 0 0 .75.75z"/></g><g id="Group_23" data-name="Group 23"><path id="Path_33" data-name="Path 33" class="cls-1" d="M247.43 148.085c-5.348 0-8.67 4.826-8.67 12.6.071 7.678 3.246 12.448 8.285 12.448 5.511 0 8.672-4.654 8.672-12.769 0-7.688-3.098-12.279-8.287-12.279zm-.209 21.168c-2.392 0-3.877-3.271-3.877-8.537 0-5.314 1.535-8.748 3.912-8.748 3.371 0 3.875 5.349 3.875 8.537 0 3.267-.508 8.748-3.91 8.748z"/></g><g id="Group_24" data-name="Group 24"><path id="Path_34" data-name="Path 34" class="cls-1" d="M266.027 173.135c5.51 0 8.67-4.654 8.67-12.769 0-7.69-3.1-12.281-8.285-12.281-5.348 0-8.67 4.826-8.67 12.6.071 7.681 3.246 12.45 8.285 12.45zm.211-21.167c3.371 0 3.875 5.349 3.875 8.537 0 3.267-.508 8.748-3.912 8.748-2.391 0-3.875-3.271-3.875-8.537 0-5.316 1.535-8.748 3.912-8.748z"/></g><g id="Group_25" data-name="Group 25"><path id="Path_35" data-name="Path 35" class="cls-1" d="M286.461 148.471h-2.629a.744.744 0 0 0-.354.089l-4.975 2.663a.75.75 0 0 0-.374.844l.592 2.348a.751.751 0 0 0 1.083.477l2.928-1.578V172a.75.75 0 0 0 .75.75h2.979a.75.75 0 0 0 .75-.75v-22.779a.75.75 0 0 0-.75-.75z"/></g><g id="Group_26" data-name="Group 26"><path id="Path_36" data-name="Path 36" class="cls-1" d="M302.375 148.085c-5.348 0-8.67 4.826-8.67 12.6.069 7.678 3.244 12.448 8.285 12.448 5.51 0 8.67-4.654 8.67-12.769 0-7.688-3.097-12.279-8.285-12.279zm-.211 21.168c-2.391 0-3.875-3.271-3.875-8.537 0-5.314 1.535-8.748 3.91-8.748 3.371 0 3.875 5.349 3.875 8.537 0 3.267-.508 8.748-3.91 8.748z"/></g><g id="Group_27" data-name="Group 27"><path id="Path_37" data-name="Path 37" class="cls-1" d="M192.486 190.148c-5.348 0-8.67 4.826-8.67 12.6.071 7.678 3.246 12.447 8.285 12.447 5.51 0 8.67-4.654 8.67-12.77 0-7.686-3.097-12.277-8.285-12.277zm-.211 21.168c-2.391 0-3.875-3.271-3.875-8.537 0-5.314 1.535-8.748 3.912-8.748 3.37 0 3.873 5.349 3.873 8.538.001 3.266-.507 8.747-3.91 8.747z"/></g><g id="Group_28" data-name="Group 28"><path id="Path_38" data-name="Path 38" class="cls-1" d="M211.082 215.2c5.511 0 8.672-4.654 8.672-12.77 0-7.689-3.1-12.28-8.285-12.28-5.349 0-8.672 4.826-8.672 12.6.071 7.679 3.246 12.45 8.285 12.45zm.211-21.167c3.371 0 3.875 5.349 3.875 8.538 0 3.267-.508 8.747-3.91 8.747-2.392 0-3.877-3.271-3.877-8.537 0-5.316 1.535-8.75 3.912-8.75z"/></g><g id="Group_29" data-name="Group 29"><path id="Path_39" data-name="Path 39" class="cls-1" d="M224.2 196.982a.75.75 0 0 0 .658-.026l2.927-1.58v18.688a.75.75 0 0 0 .75.75h2.979a.75.75 0 0 0 .75-.75v-22.779a.75.75 0 0 0-.75-.75h-2.629a.744.744 0 0 0-.354.089l-4.977 2.663a.751.751 0 0 0-.374.845l.594 2.348a.75.75 0 0 0 .426.502z"/></g><g id="Group_30" data-name="Group 30"><path id="Path_40" data-name="Path 40" class="cls-1" d="M245.77 214.063a.75.75 0 0 0 .75.75h2.98a.75.75 0 0 0 .75-.75v-22.779a.75.75 0 0 0-.75-.75h-2.627a.744.744 0 0 0-.354.089l-4.977 2.663a.751.751 0 0 0-.374.845l.594 2.348a.752.752 0 0 0 1.084.476l2.925-1.579z"/></g><g id="Group_31" data-name="Group 31"><path id="Path_41" data-name="Path 41" class="cls-1" d="M265.027 215.2c5.51 0 8.67-4.654 8.67-12.77 0-7.689-3.1-12.28-8.285-12.28-5.348 0-8.67 4.826-8.67 12.6.071 7.679 3.246 12.45 8.285 12.45zm.211-21.167c3.371 0 3.875 5.349 3.875 8.538 0 3.267-.508 8.747-3.912 8.747-2.391 0-3.875-3.271-3.875-8.537 0-5.316 1.535-8.75 3.912-8.75z"/></g><g id="Group_32" data-name="Group 32"><path id="Path_42" data-name="Path 42" class="cls-1" d="M285.461 190.534h-2.629a.744.744 0 0 0-.354.089l-4.975 2.663a.75.75 0 0 0-.374.844l.592 2.348a.751.751 0 0 0 1.084.477l2.927-1.579v18.686a.75.75 0 0 0 .75.75h2.979a.75.75 0 0 0 .75-.75v-22.779a.75.75 0 0 0-.75-.749z"/></g><g id="Group_33" data-name="Group 33"><path id="Path_43" data-name="Path 43" class="cls-1" d="M301.375 190.148c-5.348 0-8.67 4.826-8.67 12.6.069 7.678 3.244 12.447 8.285 12.447 5.51 0 8.67-4.654 8.67-12.77 0-7.686-3.097-12.277-8.285-12.277zm-.211 21.168c-2.391 0-3.875-3.271-3.875-8.537 0-5.314 1.535-8.748 3.91-8.748 3.371 0 3.875 5.349 3.875 8.538 0 3.266-.508 8.747-3.91 8.747z"/></g><g id="Group_34" data-name="Group 34"><path id="Path_44" data-name="Path 44" class="cls-1" d="M320.357 190.148c-5.349 0-8.672 4.826-8.672 12.6.071 7.678 3.246 12.447 8.285 12.447 5.511 0 8.672-4.654 8.672-12.77 0-7.686-3.097-12.277-8.285-12.277zm-.21 21.168c-2.392 0-3.877-3.271-3.877-8.537 0-5.314 1.535-8.748 3.912-8.748 3.371 0 3.875 5.349 3.875 8.538 0 3.266-.508 8.747-3.91 8.747z"/></g><g id="Group_35" data-name="Group 35"><path id="Path_45" data-name="Path 45" class="cls-1" d="M340.4 190.534h-2.627a.744.744 0 0 0-.354.089l-4.977 2.663a.751.751 0 0 0-.374.845l.594 2.348a.752.752 0 0 0 1.084.476l2.925-1.579v18.686a.75.75 0 0 0 .75.75h2.979a.75.75 0 0 0 .75-.75v-22.779a.75.75 0 0 0-.75-.749z"/></g><g id="Group_36" data-name="Group 36"><path id="Path_46" data-name="Path 46" class="cls-1" d="M339.334 262.98H45.842V84.913h128.992v-20H36.166a10.324 10.324 0 0 0-10.324 10.324V262.98h-7.508a18.333 18.333 0 1 0 0 36.667h321a18.333 18.333 0 1 0 0-36.667zm-150.822 23.656h-19.355a5.322 5.322 0 1 1 0-10.644h19.355a5.322 5.322 0 1 1 0 10.644z"/><path id="Path_47" data-name="Path 47" class="cls-1" d="M192.1 257.262c5.51 0 8.67-4.655 8.67-12.771 0-7.689-3.1-12.28-8.285-12.28-5.348 0-8.67 4.826-8.67 12.6.073 7.681 3.248 12.451 8.285 12.451zm.211-21.167c3.37 0 3.873 5.349 3.873 8.537 0 3.267-.508 8.747-3.91 8.747-2.391 0-3.875-3.271-3.875-8.537.001-5.314 1.537-8.742 3.914-8.742z"/></g><g id="Group_37" data-name="Group 37"><path id="Path_48" data-name="Path 48" class="cls-1" d="M212.469 232.211c-5.349 0-8.672 4.826-8.672 12.6.071 7.678 3.246 12.448 8.285 12.448 5.511 0 8.672-4.655 8.672-12.771 0-7.688-3.098-12.277-8.285-12.277zm-.211 21.168c-2.392 0-3.877-3.271-3.877-8.537 0-5.313 1.535-8.747 3.912-8.747 3.371 0 3.875 5.349 3.875 8.537 0 3.268-.508 8.747-3.91 8.747z"/></g><g id="Group_38" data-name="Group 38"><path id="Path_49" data-name="Path 49" class="cls-1" d="M232.449 232.211c-5.348 0-8.67 4.826-8.67 12.6.069 7.678 3.243 12.448 8.283 12.448 5.511 0 8.672-4.655 8.672-12.771 0-7.688-3.097-12.277-8.285-12.277zm-.211 21.168c-2.392 0-3.877-3.271-3.877-8.537 0-5.313 1.535-8.747 3.912-8.747 3.373 0 3.877 5.349 3.877 8.537 0 3.268-.507 8.747-3.912 8.747z"/></g><g id="Group_39" data-name="Group 39"><path id="Path_50" data-name="Path 50" class="cls-1" d="M252.5 232.6h-2.627a.744.744 0 0 0-.354.089l-4.977 2.664a.751.751 0 0 0-.374.845l.594 2.348a.751.751 0 0 0 1.084.477l2.925-1.579v18.686a.75.75 0 0 0 .75.75h2.979a.75.75 0 0 0 .75-.75v-22.782a.75.75 0 0 0-.75-.748z"/></g><g id="Group_40" data-name="Group 40"><path id="Path_51" data-name="Path 51" class="cls-1" d="M268.412 232.211c-5.348 0-8.67 4.826-8.67 12.6.071 7.678 3.246 12.448 8.285 12.448 5.51 0 8.67-4.655 8.67-12.771.003-7.688-3.097-12.277-8.285-12.277zm-.211 21.168c-2.391 0-3.875-3.271-3.875-8.537 0-5.313 1.535-8.747 3.912-8.747 3.371 0 3.875 5.349 3.875 8.537 0 3.268-.508 8.747-3.913 8.747z"/></g></g></svg>