<svg id="item-vvv" xmlns="http://www.w3.org/2000/svg" viewBox="0 0 511.999 512"><defs><style>.cls-1{fill:url(#linear-gradient)}</style><linearGradient id="linear-gradient" x1=".277" y1=".854" x2=".742" y2=".125" gradientUnits="objectBoundingBox"><stop offset="0" stop-color="#460f41"/><stop offset="1" stop-color="#f000ff"/></linearGradient></defs><path id="Path_56" data-name="Path 56" class="cls-1" d="M262.785 317.207a8.084 8.084 0 0 0-10.769-3.837 128.726 128.726 0 0 1-20.448 7.648 8.08 8.08 0 0 0-5.748 6.2l-8.552 42.758a9.088 9.088 0 0 1-8.888 7.287h-23.329a9.088 9.088 0 0 1-8.888-7.287l-8.552-42.758a8.084 8.084 0 0 0-5.748-6.2 128.447 128.447 0 0 1-28.391-11.764 8.086 8.086 0 0 0-8.452.317l-36.286 24.19a9.091 9.091 0 0 1-11.434-1.133l-16.5-16.5a9.091 9.091 0 0 1-1.133-11.438l24.19-36.286a8.081 8.081 0 0 0 .317-8.452 128.411 128.411 0 0 1-11.764-28.388 8.08 8.08 0 0 0-6.2-5.748l-42.758-8.552a9.088 9.088 0 0 1-7.287-8.888v-23.329a9.088 9.088 0 0 1 7.287-8.888l42.758-8.552a8.084 8.084 0 0 0 6.2-5.748 128.448 128.448 0 0 1 11.764-28.391 8.086 8.086 0 0 0-.317-8.452L59.669 88.734A9.09 9.09 0 0 1 60.8 77.3l16.5-16.5a9.091 9.091 0 0 1 11.438-1.133l36.286 24.19a8.083 8.083 0 0 0 8.452.317 128.447 128.447 0 0 1 28.389-11.764 8.08 8.08 0 0 0 5.748-6.2l8.552-42.758a9.088 9.088 0 0 1 8.888-7.287h23.329a9.088 9.088 0 0 1 8.888 7.287l8.552 42.758a8.084 8.084 0 0 0 5.748 6.2 128.448 128.448 0 0 1 28.391 11.764 8.086 8.086 0 0 0 8.452-.317l36.287-24.19a9.091 9.091 0 0 1 11.437 1.133l16.5 16.5a9.091 9.091 0 0 1 1.133 11.438l-24.19 36.286a8.081 8.081 0 0 0-.317 8.452 128.448 128.448 0 0 1 11.764 28.391 8.08 8.08 0 0 0 6.2 5.748l42.758 8.552a9.088 9.088 0 0 1 7.287 8.888v23.325a9.088 9.088 0 0 1-7.287 8.888l-42.758 8.552a8.084 8.084 0 0 0-6.2 5.75 128.672 128.672 0 0 1-7.88 20.934 8.084 8.084 0 0 0 14.576 6.994 144.994 144.994 0 0 0 7.442-18.777l37.991-7.6a25.3 25.3 0 0 0 20.279-24.744V185.05a25.3 25.3 0 0 0-20.284-24.743l-37.99-7.6a144.661 144.661 0 0 0-9.434-22.769L347.215 97.7a25.3 25.3 0 0 0-3.153-31.839l-16.5-16.5a25.3 25.3 0 0 0-31.839-3.153l-32.235 21.497a144.755 144.755 0 0 0-22.769-9.434l-7.6-37.99A25.3 25.3 0 0 0 208.38 0h-23.329a25.3 25.3 0 0 0-24.743 20.284l-7.6 37.99a144.66 144.66 0 0 0-22.769 9.434L97.7 46.216a25.3 25.3 0 0 0-31.839 3.153l-16.5 16.5A25.3 25.3 0 0 0 46.216 97.7l21.492 32.239a144.715 144.715 0 0 0-9.434 22.769l-37.991 7.6A25.3 25.3 0 0 0 0 185.052v23.329a25.3 25.3 0 0 0 20.284 24.743l37.99 7.6a144.644 144.644 0 0 0 9.434 22.769L46.216 295.73a25.3 25.3 0 0 0 3.153 31.839l16.5 16.5a25.3 25.3 0 0 0 31.831 3.149l32.239-21.492a144.717 144.717 0 0 0 22.769 9.434l7.6 37.992a25.3 25.3 0 0 0 24.742 20.281h23.329a25.3 25.3 0 0 0 24.743-20.284l7.6-37.99a144.831 144.831 0 0 0 18.228-7.18 8.086 8.086 0 0 0 3.835-10.772z"/><path id="Path_57" data-name="Path 57" class="cls-1" d="M266.739 241.636a8.077 8.077 0 0 0 10.882-3.5 90.882 90.882 0 0 0-144.336-106.491 8.084 8.084 0 0 0 11.285 11.577 74.72 74.72 0 0 1 118.663 87.534 8.084 8.084 0 0 0 3.506 10.88z"/><path id="Path_58" data-name="Path 58" class="cls-1" d="M121.043 162.125a8.083 8.083 0 0 0-10.274 5.014 90.893 90.893 0 0 0 139.2 103.223 8.085 8.085 0 0 0-9.483-13.1 74.743 74.743 0 0 1-114.43-84.862 8.081 8.081 0 0 0-5.013-10.275z"/><path id="Path_59" data-name="Path 59" class="cls-1" d="M496.442 353.316l-23.377-4.675a97.791 97.791 0 0 0-5.127-12.373l13.226-19.838a19.405 19.405 0 0 0-2.418-24.42l-10.84-10.84a19.407 19.407 0 0 0-24.42-2.418l-19.838 13.226a97.638 97.638 0 0 0-12.373-5.126l-4.675-23.377a19.405 19.405 0 0 0-18.977-15.558h-15.331a19.406 19.406 0 0 0-18.977 15.558l-4.675 23.377a97.934 97.934 0 0 0-12.373 5.126l-19.838-13.226a19.407 19.407 0 0 0-24.42 2.418l-10.84 10.84a19.406 19.406 0 0 0-2.418 24.42l13.226 19.838a97.706 97.706 0 0 0-6.605 17.177 8.085 8.085 0 1 0 15.571 4.357 81.578 81.578 0 0 1 7.476-18.043 8.086 8.086 0 0 0-.317-8.452l-15.9-23.845a3.194 3.194 0 0 1 .4-4.019l10.84-10.84a3.2 3.2 0 0 1 4.019-.4l23.845 15.9a8.083 8.083 0 0 0 8.452.317 81.6 81.6 0 0 1 18.043-7.476 8.08 8.08 0 0 0 5.748-6.2l5.619-28.1a3.193 3.193 0 0 1 3.123-2.56h15.331a3.2 3.2 0 0 1 3.123 2.56l5.619 28.1a8.084 8.084 0 0 0 5.748 6.2 81.578 81.578 0 0 1 18.043 7.476 8.086 8.086 0 0 0 8.452-.317l23.845-15.9a3.193 3.193 0 0 1 4.019.4l10.84 10.84a3.2 3.2 0 0 1 .4 4.019l-15.9 23.845a8.081 8.081 0 0 0-.317 8.452 81.6 81.6 0 0 1 7.476 18.043 8.08 8.08 0 0 0 6.2 5.748l28.1 5.619a3.193 3.193 0 0 1 2.56 3.123v15.331a3.2 3.2 0 0 1-2.56 3.123l-28.1 5.619a8.084 8.084 0 0 0-6.2 5.748 81.578 81.578 0 0 1-7.476 18.043 8.086 8.086 0 0 0 .317 8.452l15.9 23.845a3.194 3.194 0 0 1-.4 4.019l-10.84 10.84a3.2 3.2 0 0 1-4.019.4l-23.845-15.9a8.086 8.086 0 0 0-8.452-.317 81.6 81.6 0 0 1-18.043 7.476 8.08 8.08 0 0 0-5.748 6.2l-5.619 28.1a3.193 3.193 0 0 1-3.123 2.56H372.29a3.2 3.2 0 0 1-3.123-2.56l-5.619-28.1a8.084 8.084 0 0 0-5.748-6.2 81.578 81.578 0 0 1-18.043-7.476 8.086 8.086 0 0 0-8.452.317l-23.845 15.9a3.193 3.193 0 0 1-4.019-.4l-10.84-10.84a3.2 3.2 0 0 1-.4-4.019l15.9-23.845a8.081 8.081 0 0 0 .317-8.452 81.6 81.6 0 0 1-7.476-18.043 8.08 8.08 0 0 0-6.2-5.748l-28.1-5.619a3.193 3.193 0 0 1-2.56-3.123v-15.331a3.2 3.2 0 0 1 2.56-3.123l1.72-.344a8.084 8.084 0 1 0-3.173-15.854l-1.72.344a19.407 19.407 0 0 0-15.556 18.978v15.331a19.406 19.406 0 0 0 15.56 18.976l23.377 4.675a97.934 97.934 0 0 0 5.126 12.373l-13.226 19.839a19.4 19.4 0 0 0 2.418 24.42l10.84 10.84a19.406 19.406 0 0 0 24.42 2.418l19.838-13.226a97.638 97.638 0 0 0 12.373 5.126l4.675 23.377A19.409 19.409 0 0 0 372.293 512h15.331a19.406 19.406 0 0 0 18.976-15.558l4.675-23.377a97.791 97.791 0 0 0 12.373-5.127l19.838 13.226a19.405 19.405 0 0 0 24.42-2.418l10.84-10.84a19.406 19.406 0 0 0 2.418-24.42l-13.226-19.838a97.638 97.638 0 0 0 5.126-12.373l23.377-4.675A19.405 19.405 0 0 0 512 387.623v-15.331a19.4 19.4 0 0 0-15.558-18.976z"/><path id="Path_60" data-name="Path 60" class="cls-1" d="M379.958 350.855a29.135 29.135 0 0 1 29.1 29.1 8.084 8.084 0 0 0 16.168 0 45.272 45.272 0 1 0-45.272 45.272 44.851 44.851 0 0 0 27.659-9.429 8.085 8.085 0 0 0-9.886-12.8 28.823 28.823 0 0 1-17.773 6.056 29.1 29.1 0 1 1 0-58.206z"/><path id="Path_61" data-name="Path 61" class="cls-1" d="M245.969 196.716a49.253 49.253 0 1 0-49.253 49.253 49.31 49.31 0 0 0 49.253-49.253zm-82.338 0a33.085 33.085 0 1 1 33.085 33.084 33.124 33.124 0 0 1-33.085-33.084z"/></svg>