<svg xmlns="http://www.w3.org/2000/svg" viewBox="0 0 370.887 495.162"><defs><style>.cls-1{fill:url(#linear-gradient)}</style><linearGradient id="linear-gradient" x1=".202" y1=".786" x2=".763" y2=".052" gradientUnits="objectBoundingBox"><stop offset="0" stop-color="#f6c03f"/><stop offset="1" stop-color="#ff7c00"/></linearGradient></defs><g id="item-V" transform="translate(-70.105 -13.796)"><path id="Subtraction_1" data-name="Subtraction 1" class="cls-1" d="M136.182 320.484L-1.105 276.526-44-72h370.887L283.9 276.526l-147.718 43.958zM35.526 155.587l6.074 71.88 95.845 27.087 95.843-27.087 11.877-140.646H77.823L73.67 40.982l175.451-.922 3.968-47.007H21.8l11.953 141.564h158.9l-5.2 58.478-50.013 13.544-52.085-14.593-1.308-36.459z" transform="translate(114.105 188.474)"/><path id="Path_5" data-name="Path 5" class="cls-1" d="M151.159 16.8v24.317h-23.238V16.8H106.3v69.713h21.618v-22.7h23.238v22.7h21.618V16.8z" transform="translate(-1 -3)"/><path id="Path_6" data-name="Path 6" class="cls-1" d="M249.521 16.8h-66.476v24.317h21.618v45.938H227.9V41.117h21.618z" transform="translate(-1 -3)"/><path id="Path_7" data-name="Path 7" class="cls-1" d="M373.284 64.895V17.337h-23.24v69.718h56.746v-22.16z" transform="translate(-1 -3)"/><path id="Path_8" data-name="Path 8" class="cls-1" d="M314.914 17.337L298.7 42.2l-16.214-24.86h-23.237v69.715h23.239v-34.59L298.7 77.327l16.212-24.862v34.59h23.24V17.337z" transform="translate(-1 -3)"/></g></svg>