<svg xmlns="http://www.w3.org/2000/svg" width="61" height="85"><defs><linearGradient id="a" x1="0%" x2="62.932%" y1="77.715%" y2="0%"><stop offset="0%" stop-color="#F6C03F"/><stop offset="100%" stop-color="#FF7C00"/></linearGradient></defs><path fill-rule="evenodd" fill="#333" d="M57.703 85H3.297C1.478 85 0 83.504 0 81.666V3.333C0 1.496 1.478 0 3.297 0h39.841c.129 0 .256.018.379.047.03.009.058.021.088.029a1.737 1.737 0 0 1 .762.482c.003.005.008.006.013.012l16.211 18.72c.264.305.388.689.391 1.08.008.062.018.123.018.186v61.11C61 83.504 59.52 85 57.703 85zm-22.006-4.608c5.595 0 8.227-2.935 8.228-6.39 0-2.904-1.695-4.798-5.292-6.144-2.632-1.007-3.782-1.59-3.782-2.904 0-1.068.969-1.987 2.964-1.987 1.997 0 3.448.581 4.266.978l1.026-3.76c-1.209-.551-2.904-1.04-5.202-1.04-4.808 0-7.711 2.691-7.711 6.206 0 2.997 2.207 4.891 5.595 6.084 2.449.886 3.416 1.62 3.416 2.904 0 1.346-1.117 2.232-3.234 2.232-1.966 0-3.872-.642-5.112-1.285l-.937 3.853c1.15.641 3.447 1.253 5.775 1.253zm-16.089.031c4.476 0 7.259-2.048 7.259-7.918h-.001V59.481h-4.598v12.962c0 3.21-1.209 4.098-3.144 4.098a7.473 7.473 0 0 1-2.359-.368l-.515 3.762c.907.306 2.299.488 3.358.488zm38.095-58.369H43.138a1.658 1.658 0 0 1-1.648-1.667V3.333H3.297v53.263h54.406V22.054zM18.597 38.246c.013-.004.119.157.238.355.73 1.264 1.359 1.713 2.409 1.709.735-.004 1.175-.149 1.519-.495.245-.248.384-.516.502-.966l.09-.343.013-7.299.016-7.294h3.997v7.319c0 4.855-.016 7.435-.041 7.666-.282 2.283-1.347 3.819-3.164 4.563-1.515.614-3.582.664-5.191.123a6.13 6.13 0 0 1-3.519-3.1l-.124-.248 1.614-.991c.886-.541 1.625-.99 1.641-.999zm14.519.009c.956 1.428 2.144 2.089 3.736 2.089.944 0 1.704-.261 2.185-.752.143-.144.302-.359.364-.487.314-.661.175-1.524-.323-2.064-.404-.437-1.038-.789-2.74-1.527-1.25-.545-1.972-.896-2.504-1.219-2.086-1.276-3.023-2.885-3.023-5.189 0-1.54.475-2.753 1.466-3.748.966-.967 2.26-1.528 3.803-1.652.585-.045.666-.045 1.287.004 1.266.096 2.225.405 3.124 1.008.486.326 1.193 1.069 1.584 1.663.184.281.336.52.336.537 0 .029-2.969 1.97-3.075 2.015-.033.012-.128-.099-.254-.302a4.294 4.294 0 0 0-.531-.651c-.519-.529-1.029-.735-1.817-.735-.694-.005-1.143.172-1.531.598-.27.293-.392.594-.421 1.04-.033.561.119 1.011.473 1.395.372.401.936.715 2.618 1.445 2.226.967 3.341 1.635 4.202 2.519.45.463.711.829.972 1.374.38.797.548 1.603.548 2.634 0 1.615-.503 2.902-1.524 3.898-.959.94-2.197 1.494-3.847 1.729-.657.091-1.943.095-2.629 0-2.622-.355-4.563-1.593-5.804-3.708-.16-.263-.192-.35-.151-.387.065-.062 3.173-1.874 3.211-1.874.016 0 .134.156.265.347z"/><path fill="url(#a)" d="M57.703 85H3.297C1.478 85 0 83.504 0 81.666V3.333C0 1.496 1.478 0 3.297 0h39.841c.129 0 .256.018.379.047.03.009.058.021.088.029a1.737 1.737 0 0 1 .762.482c.003.005.008.006.013.012l16.211 18.72c.264.305.388.689.391 1.08.008.062.018.123.018.186v61.11C61 83.504 59.52 85 57.703 85zm-22.006-4.608c5.595 0 8.227-2.935 8.228-6.39 0-2.904-1.695-4.798-5.292-6.144-2.632-1.007-3.782-1.59-3.782-2.904 0-1.068.969-1.987 2.964-1.987 1.997 0 3.448.581 4.266.978l1.026-3.76c-1.209-.551-2.904-1.04-5.202-1.04-4.808 0-7.711 2.691-7.711 6.206 0 2.997 2.207 4.891 5.595 6.084 2.449.886 3.416 1.62 3.416 2.904 0 1.346-1.117 2.232-3.234 2.232-1.966 0-3.872-.642-5.112-1.285l-.937 3.853c1.15.641 3.447 1.253 5.775 1.253zm-16.089.031c4.476 0 7.259-2.048 7.259-7.918h-.001V59.481h-4.598v12.962c0 3.21-1.209 4.098-3.144 4.098a7.473 7.473 0 0 1-2.359-.368l-.515 3.762c.907.306 2.299.488 3.358.488zm38.095-58.369H43.138a1.658 1.658 0 0 1-1.648-1.667V3.333H3.297v53.263h54.406V22.054zM18.597 38.246c.013-.004.119.157.238.355.73 1.264 1.359 1.713 2.409 1.709.735-.004 1.175-.149 1.519-.495.245-.248.384-.516.502-.966l.09-.343.013-7.299.016-7.294h3.997v7.319c0 4.855-.016 7.435-.041 7.666-.282 2.283-1.347 3.819-3.164 4.563-1.515.614-3.582.664-5.191.123a6.13 6.13 0 0 1-3.519-3.1l-.124-.248 1.614-.991c.886-.541 1.625-.99 1.641-.999zm14.519.009c.956 1.428 2.144 2.089 3.736 2.089.944 0 1.704-.261 2.185-.752.143-.144.302-.359.364-.487.314-.661.175-1.524-.323-2.064-.404-.437-1.038-.789-2.74-1.527-1.25-.545-1.972-.896-2.504-1.219-2.086-1.276-3.023-2.885-3.023-5.189 0-1.54.475-2.753 1.466-3.748.966-.967 2.26-1.528 3.803-1.652.585-.045.666-.045 1.287.004 1.266.096 2.225.405 3.124 1.008.486.326 1.193 1.069 1.584 1.663.184.281.336.52.336.537 0 .029-2.969 1.97-3.075 2.015-.033.012-.128-.099-.254-.302a4.294 4.294 0 0 0-.531-.651c-.519-.529-1.029-.735-1.817-.735-.694-.005-1.143.172-1.531.598-.27.293-.392.594-.421 1.04-.033.561.119 1.011.473 1.395.372.401.936.715 2.618 1.445 2.226.967 3.341 1.635 4.202 2.519.45.463.711.829.972 1.374.38.797.548 1.603.548 2.634 0 1.615-.503 2.902-1.524 3.898-.959.94-2.197 1.494-3.847 1.729-.657.091-1.943.095-2.629 0-2.622-.355-4.563-1.593-5.804-3.708-.16-.263-.192-.35-.151-.387.065-.062 3.173-1.874 3.211-1.874.016 0 .134.156.265.347z"/></svg>