<svg xmlns="http://www.w3.org/2000/svg" width="97" height="77"><defs><linearGradient id="a" x1="0%" x2="62.932%" y1="77.715%" y2="0%"><stop offset="0%" stop-color="#F6C03F"/><stop offset="100%" stop-color="#FF7C00"/></linearGradient></defs><path fill-rule="evenodd" fill="#333" d="M96.883 46.613a3.054 3.054 0 0 1-1.45 1.853l-1.265.714a18.613 18.613 0 0 1 0 6.033l1.265.714a3.05 3.05 0 0 1 1.449 1.852 3.075 3.075 0 0 1-.28 2.343l-3.079 5.518a3.068 3.068 0 0 1-2.674 1.572c-.522 0-1.04-.136-1.497-.393l-1.27-.717a18.348 18.348 0 0 1-5.735 3.38v1.457c0 1.699-1.374 3.081-3.062 3.081h-6.297c-1.688 0-3.062-1.382-3.062-3.081v-1.457a18.331 18.331 0 0 1-5.735-3.381l-1.268.717a3.06 3.06 0 0 1-1.499.394 3.068 3.068 0 0 1-2.673-1.571L55.67 60.12a3.074 3.074 0 0 1-.279-2.341 3.052 3.052 0 0 1 1.45-1.852l1.265-.714a18.613 18.613 0 0 1 0-6.033l-1.265-.713a3.06 3.06 0 0 1-1.45-1.853 3.073 3.073 0 0 1 .28-2.342l3.079-5.518a3.053 3.053 0 0 1 4.172-1.179l1.27.717a18.32 18.32 0 0 1 5.735-3.381v-1.457c0-1.698 1.373-3.08 3.062-3.08h6.296c1.689 0 3.062 1.382 3.062 3.08v1.457a18.325 18.325 0 0 1 5.735 3.38l1.269-.715a3.05 3.05 0 0 1 1.499-.395c1.106 0 2.131.602 2.673 1.571l3.081 5.521c.4.716.5 1.548.279 2.34zm-20.746-3.356c-4.91 0-8.89 4.002-8.89 8.939s3.98 8.939 8.89 8.939 8.89-4.002 8.89-8.939-3.98-8.939-8.89-8.939zm-.296-20.187H11.473C5.147 23.07 0 17.895 0 11.535 0 5.174 5.147 0 11.473 0h64.368c6.326 0 11.473 5.174 11.473 11.535 0 6.36-5.147 11.535-11.473 11.535zM24.287 8.539h-10.43a2.992 2.992 0 0 0-2.98 2.996 2.992 2.992 0 0 0 2.98 2.996h10.43a2.992 2.992 0 0 0 2.98-2.996 2.992 2.992 0 0 0-2.98-2.996zm46.488-.824c-2.095 0-3.8 1.713-3.8 3.82 0 2.106 1.705 3.82 3.8 3.82 2.095 0 3.799-1.714 3.799-3.82 0-2.107-1.704-3.82-3.799-3.82zm-59.302 19.25h58.772a7.588 7.588 0 0 0-4.634 5.517c-.651.343-1.286.717-1.902 1.122a7.5 7.5 0 0 0-2.285-.358 7.545 7.545 0 0 0-6.573 3.868l-3.076 5.513a7.568 7.568 0 0 0-.688 5.76c.163.582.392 1.132.677 1.648H11.473C5.147 50.035 0 44.86 0 38.5c0-6.361 5.147-11.535 11.473-11.535zm2.384 14.531h10.43a2.992 2.992 0 0 0 2.98-2.996 2.992 2.992 0 0 0-2.98-2.996h-10.43a2.992 2.992 0 0 0-2.98 2.996 2.992 2.992 0 0 0 2.98 2.996zM11.473 53.93h41.429a7.53 7.53 0 0 0-1.815 3.194 7.558 7.558 0 0 0 .684 5.754l3.085 5.526a7.539 7.539 0 0 0 6.568 3.861c.776 0 1.547-.122 2.284-.357a23.02 23.02 0 0 0 1.903 1.121A7.584 7.584 0 0 0 67.822 77H11.473C5.147 77 0 71.825 0 65.465 0 59.104 5.147 53.93 11.473 53.93zm2.384 14.531h10.43a2.992 2.992 0 0 0 2.98-2.996 2.992 2.992 0 0 0-2.98-2.996h-10.43a2.992 2.992 0 0 0-2.98 2.996 2.992 2.992 0 0 0 2.98 2.996z"/><path fill="url(#a)" d="M96.883 46.613a3.054 3.054 0 0 1-1.45 1.853l-1.265.714a18.613 18.613 0 0 1 0 6.033l1.265.714a3.05 3.05 0 0 1 1.449 1.852 3.075 3.075 0 0 1-.28 2.343l-3.079 5.518a3.068 3.068 0 0 1-2.674 1.572c-.522 0-1.04-.136-1.497-.393l-1.27-.717a18.348 18.348 0 0 1-5.735 3.38v1.457c0 1.699-1.374 3.081-3.062 3.081h-6.297c-1.688 0-3.062-1.382-3.062-3.081v-1.457a18.331 18.331 0 0 1-5.735-3.381l-1.268.717a3.06 3.06 0 0 1-1.499.394 3.068 3.068 0 0 1-2.673-1.571L55.67 60.12a3.074 3.074 0 0 1-.279-2.341 3.052 3.052 0 0 1 1.45-1.852l1.265-.714a18.613 18.613 0 0 1 0-6.033l-1.265-.713a3.06 3.06 0 0 1-1.45-1.853 3.073 3.073 0 0 1 .28-2.342l3.079-5.518a3.053 3.053 0 0 1 4.172-1.179l1.27.717a18.32 18.32 0 0 1 5.735-3.381v-1.457c0-1.698 1.373-3.08 3.062-3.08h6.296c1.689 0 3.062 1.382 3.062 3.08v1.457a18.325 18.325 0 0 1 5.735 3.38l1.269-.715a3.05 3.05 0 0 1 1.499-.395c1.106 0 2.131.602 2.673 1.571l3.081 5.521c.4.716.5 1.548.279 2.34zm-20.746-3.356c-4.91 0-8.89 4.002-8.89 8.939s3.98 8.939 8.89 8.939 8.89-4.002 8.89-8.939-3.98-8.939-8.89-8.939zm-.296-20.187H11.473C5.147 23.07 0 17.895 0 11.535 0 5.174 5.147 0 11.473 0h64.368c6.326 0 11.473 5.174 11.473 11.535 0 6.36-5.147 11.535-11.473 11.535zM24.287 8.539h-10.43a2.992 2.992 0 0 0-2.98 2.996 2.992 2.992 0 0 0 2.98 2.996h10.43a2.992 2.992 0 0 0 2.98-2.996 2.992 2.992 0 0 0-2.98-2.996zm46.488-.824c-2.095 0-3.8 1.713-3.8 3.82 0 2.106 1.705 3.82 3.8 3.82 2.095 0 3.799-1.714 3.799-3.82 0-2.107-1.704-3.82-3.799-3.82zm-59.302 19.25h58.772a7.588 7.588 0 0 0-4.634 5.517c-.651.343-1.286.717-1.902 1.122a7.5 7.5 0 0 0-2.285-.358 7.545 7.545 0 0 0-6.573 3.868l-3.076 5.513a7.568 7.568 0 0 0-.688 5.76c.163.582.392 1.132.677 1.648H11.473C5.147 50.035 0 44.86 0 38.5c0-6.361 5.147-11.535 11.473-11.535zm2.384 14.531h10.43a2.992 2.992 0 0 0 2.98-2.996 2.992 2.992 0 0 0-2.98-2.996h-10.43a2.992 2.992 0 0 0-2.98 2.996 2.992 2.992 0 0 0 2.98 2.996zM11.473 53.93h41.429a7.53 7.53 0 0 0-1.815 3.194 7.558 7.558 0 0 0 .684 5.754l3.085 5.526a7.539 7.539 0 0 0 6.568 3.861c.776 0 1.547-.122 2.284-.357a23.02 23.02 0 0 0 1.903 1.121A7.584 7.584 0 0 0 67.822 77H11.473C5.147 77 0 71.825 0 65.465 0 59.104 5.147 53.93 11.473 53.93zm2.384 14.531h10.43a2.992 2.992 0 0 0 2.98-2.996 2.992 2.992 0 0 0-2.98-2.996h-10.43a2.992 2.992 0 0 0-2.98 2.996 2.992 2.992 0 0 0 2.98 2.996z"/></svg>