<svg xmlns="http://www.w3.org/2000/svg" width="78" height="77"><defs><linearGradient id="a" x1="0%" x2="62.932%" y1="77.715%" y2="0%"><stop offset="0%" stop-color="#F6C03F"/><stop offset="100%" stop-color="#FF7C00"/></linearGradient></defs><path fill-rule="evenodd" fill="#333" d="M76.756 34.227c-.122-1.082-1.384-1.896-2.476-1.896-3.527 0-6.658-2.07-7.971-5.275-1.34-3.281-.476-7.108 2.153-9.519a2.14 2.14 0 0 0 .234-2.904 38.131 38.131 0 0 0-6.098-6.159 2.145 2.145 0 0 0-2.926.237c-2.295 2.541-6.417 3.485-9.602 2.156-3.314-1.394-5.405-4.753-5.2-8.358A2.136 2.136 0 0 0 42.98.26a38.413 38.413 0 0 0-8.661-.023 2.145 2.145 0 0 0-1.906 2.204c.125 3.57-1.99 6.869-5.272 8.213-3.147 1.286-7.24.349-9.53-2.17a2.145 2.145 0 0 0-2.905-.244 38.31 38.31 0 0 0-6.228 6.157 2.143 2.143 0 0 0 .229 2.925c2.68 2.428 3.545 6.287 2.153 9.607-1.329 3.165-4.615 5.203-8.376 5.203-1.221-.039-2.09.781-2.225 1.891a38.592 38.592 0 0 0-.016 8.754c.121 1.087 1.421 1.894 2.525 1.894 3.353-.085 6.57 1.989 7.922 5.275 1.344 3.282.479 7.106-2.154 9.521a2.137 2.137 0 0 0-.233 2.899 38.207 38.207 0 0 0 6.089 6.162 2.141 2.141 0 0 0 2.931-.232c2.303-2.547 6.424-3.49 9.597-2.158 3.323 1.391 5.413 4.749 5.209 8.355a2.137 2.137 0 0 0 1.889 2.249c1.472.172 2.951.257 4.435.257 1.409 0 2.818-.076 4.227-.233a2.143 2.143 0 0 0 1.905-2.205c-.129-3.568 1.99-6.868 5.268-8.209 3.168-1.294 7.243-.347 9.534 2.168a2.15 2.15 0 0 0 2.906.243 38.304 38.304 0 0 0 6.227-6.158 2.138 2.138 0 0 0-.229-2.926c-2.68-2.425-3.548-6.287-2.157-9.603 1.308-3.122 4.472-5.218 7.875-5.218l.476.012c1.105.09 2.12-.761 2.254-1.888.34-2.894.344-5.838.017-8.755zM38.5 60.696c-12.259 0-22.195-9.936-22.195-22.194S26.242 16.308 38.5 16.308c12.257 0 22.194 9.936 22.194 22.194 0 4.161-1.147 8.052-3.139 11.38l-9.719-9.719a13.549 13.549 0 0 0 1.075-5.313c0-3.634-1.415-7.051-3.986-9.621a13.517 13.517 0 0 0-9.62-3.985c-1.212 0-2.42.162-3.587.48a1.54 1.54 0 0 0-1.066 1.073c-.139.524.018 1.061.427 1.471 0 0 4.798 4.835 6.403 6.44.168.168.168.57.145.714l-.015.105c-.162 1.765-.474 3.884-.732 4.698l-.102.098-.107.11c-.825.264-2.976.58-4.768.74v-.009l-.081.02a1.024 1.024 0 0 1-.814-.309c-1.671-1.671-6.281-6.248-6.281-6.248-.413-.412-.837-.499-1.12-.499-.659 0-1.249.476-1.435 1.159a13.653 13.653 0 0 0 3.512 13.184 13.522 13.522 0 0 0 9.622 3.985c1.856 0 3.654-.372 5.313-1.075l9.824 9.824A22.083 22.083 0 0 1 38.5 60.696z"/><path fill="url(#a)" d="M76.756 34.227c-.122-1.082-1.384-1.896-2.476-1.896-3.527 0-6.658-2.07-7.971-5.275-1.34-3.281-.476-7.108 2.153-9.519a2.14 2.14 0 0 0 .234-2.904 38.131 38.131 0 0 0-6.098-6.159 2.145 2.145 0 0 0-2.926.237c-2.295 2.541-6.417 3.485-9.602 2.156-3.314-1.394-5.405-4.753-5.2-8.358A2.136 2.136 0 0 0 42.98.26a38.413 38.413 0 0 0-8.661-.023 2.145 2.145 0 0 0-1.906 2.204c.125 3.57-1.99 6.869-5.272 8.213-3.147 1.286-7.24.349-9.53-2.17a2.145 2.145 0 0 0-2.905-.244 38.31 38.31 0 0 0-6.228 6.157 2.143 2.143 0 0 0 .229 2.925c2.68 2.428 3.545 6.287 2.153 9.607-1.329 3.165-4.615 5.203-8.376 5.203-1.221-.039-2.09.781-2.225 1.891a38.592 38.592 0 0 0-.016 8.754c.121 1.087 1.421 1.894 2.525 1.894 3.353-.085 6.57 1.989 7.922 5.275 1.344 3.282.479 7.106-2.154 9.521a2.137 2.137 0 0 0-.233 2.899 38.207 38.207 0 0 0 6.089 6.162 2.141 2.141 0 0 0 2.931-.232c2.303-2.547 6.424-3.49 9.597-2.158 3.323 1.391 5.413 4.749 5.209 8.355a2.137 2.137 0 0 0 1.889 2.249c1.472.172 2.951.257 4.435.257 1.409 0 2.818-.076 4.227-.233a2.143 2.143 0 0 0 1.905-2.205c-.129-3.568 1.99-6.868 5.268-8.209 3.168-1.294 7.243-.347 9.534 2.168a2.15 2.15 0 0 0 2.906.243 38.304 38.304 0 0 0 6.227-6.158 2.138 2.138 0 0 0-.229-2.926c-2.68-2.425-3.548-6.287-2.157-9.603 1.308-3.122 4.472-5.218 7.875-5.218l.476.012c1.105.09 2.12-.761 2.254-1.888.34-2.894.344-5.838.017-8.755zM38.5 60.696c-12.259 0-22.195-9.936-22.195-22.194S26.242 16.308 38.5 16.308c12.257 0 22.194 9.936 22.194 22.194 0 4.161-1.147 8.052-3.139 11.38l-9.719-9.719a13.549 13.549 0 0 0 1.075-5.313c0-3.634-1.415-7.051-3.986-9.621a13.517 13.517 0 0 0-9.62-3.985c-1.212 0-2.42.162-3.587.48a1.54 1.54 0 0 0-1.066 1.073c-.139.524.018 1.061.427 1.471 0 0 4.798 4.835 6.403 6.44.168.168.168.57.145.714l-.015.105c-.162 1.765-.474 3.884-.732 4.698l-.102.098-.107.11c-.825.264-2.976.58-4.768.74v-.009l-.081.02a1.024 1.024 0 0 1-.814-.309c-1.671-1.671-6.281-6.248-6.281-6.248-.413-.412-.837-.499-1.12-.499-.659 0-1.249.476-1.435 1.159a13.653 13.653 0 0 0 3.512 13.184 13.522 13.522 0 0 0 9.622 3.985c1.856 0 3.654-.372 5.313-1.075l9.824 9.824A22.083 22.083 0 0 1 38.5 60.696z"/></svg>