<svg xmlns="http://www.w3.org/2000/svg" width="1478.7" height="255" viewBox="139 173 1478.7 255"><circle fill="none" stroke="#100" stroke-width="11" stroke-miterlimit="10" cx="779.6" cy="235.2" r="29.3"/><circle fill="#BE6700" cx="779.6" cy="235.2" r="16.9"/><circle fill="none" stroke="#100" stroke-width="11" stroke-miterlimit="10" cx="842.5" cy="235.2" r="29.3"/><circle fill="#BE6700" cx="842.5" cy="235.2" r="16.9"/><circle fill="none" stroke="#100" stroke-width="11" stroke-miterlimit="10" cx="905.5" cy="235.2" r="29.3"/><circle fill="#BE6700" cx="905.5" cy="235.2" r="16.9"/><circle fill="none" stroke="#100" stroke-width="11" stroke-miterlimit="10" cx="969.2" cy="235.2" r="29.3"/><circle fill="#BE6700" cx="969.2" cy="235.2" r="16.9"/><circle fill="none" stroke="#100" stroke-width="11" stroke-miterlimit="10" cx="779.6" cy="298.2" r="29.3"/><circle fill="#BE6700" cx="779.6" cy="298.2" r="16.9"/><circle fill="none" stroke="#100" stroke-width="11" stroke-miterlimit="10" cx="842.5" cy="298.2" r="29.3"/><circle fill="#BE6700" cx="842.5" cy="298.2" r="16.9"/><circle fill="none" stroke="#100" stroke-width="11" stroke-miterlimit="10" cx="905.5" cy="298.2" r="29.3"/><circle fill="#BE6700" cx="905.5" cy="298.2" r="16.9"/><circle fill="none" stroke="#100" stroke-width="11" stroke-miterlimit="10" cx="969.2" cy="298.2" r="29.3"/><circle fill="#BE6700" cx="969.2" cy="298.2" r="16.9"/><circle fill="none" stroke="#100" stroke-width="11" stroke-miterlimit="10" cx="779.6" cy="361.1" r="29.3"/><circle fill="#BE6700" cx="779.6" cy="361.1" r="16.9"/><circle fill="none" stroke="#100" stroke-width="11" stroke-miterlimit="10" cx="842.5" cy="361.1" r="29.3"/><circle fill="#BE6700" cx="842.5" cy="361.1" r="16.9"/><circle fill="none" stroke="#100" stroke-width="11" stroke-miterlimit="10" cx="905.5" cy="361.1" r="29.3"/><circle fill="#BE6700" cx="905.5" cy="361.1" r="16.9"/><circle fill="none" stroke="#100" stroke-width="11" stroke-miterlimit="10" cx="969.2" cy="361.1" r="29.3"/><circle fill="#BE6700" cx="969.2" cy="361.1" r="16.9"/><circle fill="#BE6700" cx="810.7" cy="235.2" r="8.1"/><circle fill="#BE6700" cx="779.6" cy="266.8" r="8.1"/><circle fill="#BE6700" cx="844" cy="266.8" r="8.1"/><circle fill="#BE6700" cx="906.2" cy="266.8" r="8.1"/><circle fill="#BE6700" cx="969.2" cy="266.8" r="8.1"/><circle fill="#BE6700" cx="779.6" cy="329.7" r="8.1"/><circle fill="#BE6700" cx="844" cy="329.7" r="8.1"/><circle fill="#BE6700" cx="906.2" cy="329.7" r="8.1"/><circle fill="#BE6700" cx="969.2" cy="329.7" r="8.1"/><circle fill="#BE6700" cx="873.6" cy="235.2" r="8.1"/><circle fill="#BE6700" cx="937.3" cy="235.2" r="8.1"/><circle fill="#BE6700" cx="810.7" cy="296.7" r="8.1"/><circle fill="#BE6700" cx="873.6" cy="296.7" r="8.1"/><circle fill="#BE6700" cx="937.3" cy="296.7" r="8.1"/><circle fill="#BE6700" cx="810.7" cy="359.6" r="8.1"/><circle fill="#BE6700" cx="873.6" cy="359.6" r="8.1"/><circle fill="#BE6700" cx="937.3" cy="359.6" r="8.1"/><circle fill="none" stroke="#000" stroke-width="15" stroke-miterlimit="10" cx="240.3" cy="298.6" r="91.6"/><circle fill="#BE6700" cx="240.3" cy="298.6" r="52.8"/><path fill="#BE6700" d="M334.9 241.8c0 12.4-10 22.4-22.4 22.4s-22.4-10-22.4-22.4 10-22.4 22.4-22.4c12.3 0 22.4 10 22.4 22.4z"/><g fill="none" stroke="#100" stroke-width="9" stroke-miterlimit="10"><path d="M1296.7 182v-6h-6"/><path stroke-dasharray="11.5716,11.5716" d="M1279.1 176h-133"/><path d="M1140.3 176h-6v6"/><path stroke-dasharray="6.3774,6.3774" d="M1134.3 188.4v9.5"/><path d="M1134.3 201.1v6h6"/><path stroke-dasharray="13.105,13.105" d="M1153.4 207.1h98.3"/><path d="M1258.2 207.1h6v6"/><path stroke-dasharray="11.3823,11.3823" d="M1264.2 224.5v153.7"/><path d="M1264.2 383.9v6h6"/><path stroke-dasharray="6.8286,6.8286" d="M1277.1 389.9h10.2"/><path d="M1291.7 389.9h5v-5"/><path stroke-dasharray="11.8745,11.8745" d="M1296.7 372V187.9"/><path d="M1134.3 211.4v-4.3h-6"/><path stroke-dasharray="6.8288,6.8288" d="M1121.5 207.1h-10.3"/><path d="M1107.8 207.1h-6v6"/><path stroke-dasharray="11.8746,11.8746" d="M1101.8 225v184.1"/><path d="M1101.8 415v6h6"/><path stroke-dasharray="11.5716,11.5716" d="M1119.4 421h133"/><path d="M1258.2 421h6v-6"/><path stroke-dasharray="6.3776,6.3776" d="M1264.2 408.6v-9.5"/><path d="M1264.2 395.9v-6h-3.4"/></g><g fill="none" stroke="#100" stroke-width="8" stroke-miterlimit="10"><path d="M1607.4 176h-167.8v24.5h95.8l47.6 46.1V397h24.4z"/><path d="M1536.1 200.5h-121v221H1583V252.9"/><path d="M1537.9 206.9l.1 40.1 39.6.2z"/></g><circle fill="none" stroke="#100" stroke-width="15" stroke-miterlimit="10" cx="480" cy="346.3" r="49.3"/><circle fill="#BE6700" cx="480" cy="346.3" r="28.4"/><circle fill="none" stroke="#100" stroke-width="15" stroke-miterlimit="10" cx="535.5" cy="250.5" r="49.3"/><circle fill="#BE6700" cx="535.5" cy="250.5" r="28.4"/><circle fill="none" stroke="#100" stroke-width="15" stroke-miterlimit="10" cx="591.3" cy="346.3" r="49.3"/><circle fill="#BE6700" cx="591.3" cy="346.3" r="28.4"/><circle fill="#BE6700" cx="504.6" cy="307.5" r="12.1"/><circle fill="#BE6700" cx="528.6" cy="347.1" r="12.1"/><circle fill="#BE6700" cx="541.9" cy="347.1" r="12.1"/><circle fill="#BE6700" cx="568.1" cy="307" r="12.1"/><circle fill="#BE6700" cx="511.4" cy="292" r="12.1"/><circle fill="#BE6700" cx="562.9" cy="292.8" r="12.1"/><path fill="#A29E5E" d="M391.3 297L376 311.6v-29.2zm311 0L687 311.6v-29.2zm356 0l-15.3 14.6v-29.2zm306 0l-15.3 14.6v-29.2z"/></svg>